<?xml version="1.0" encoding="UTF-8" standalone="no"?>
<!-- Created with Inkscape (http://www.inkscape.org/) -->

<svg
   version="1.1"
   id="svg2084"
   xml:space="preserve"
   width="383.168"
   height="271.13599"
   viewBox="0 0 383.168 271.136"
   sodipodi:docname="2splits.svg"
   inkscape:version="1.1.1 (3bf5ae0d25, 2021-09-20, custom)"
   xmlns:inkscape="http://www.inkscape.org/namespaces/inkscape"
   xmlns:sodipodi="http://sodipodi.sourceforge.net/DTD/sodipodi-0.dtd"
   xmlns="http://www.w3.org/2000/svg"
   xmlns:svg="http://www.w3.org/2000/svg"><defs
     id="defs2088"><clipPath
       clipPathUnits="userSpaceOnUse"
       id="clipPath2104"><path
         d="M 950,2570 H 5150 V 5340 H 950 Z"
         id="path2102" /></clipPath><clipPath
       clipPathUnits="userSpaceOnUse"
       id="clipPath3065"><path
         d="M 950,2570 H 5150 V 5340 H 950 Z"
         id="path3063" /></clipPath><clipPath
       clipPathUnits="userSpaceOnUse"
       id="clipPath3899"><path
         d="M 950,2380 H 5150 V 5530 H 950 Z"
         id="path3897" /></clipPath><clipPath
       clipPathUnits="userSpaceOnUse"
       id="clipPath4922"><path
         d="M 950,2570 H 5150 V 5340 H 950 Z"
         id="path4920" /></clipPath><clipPath
       clipPathUnits="userSpaceOnUse"
       id="clipPath5804"><path
         d="M 950,2570 H 5150 V 5340 H 950 Z"
         id="path5802" /></clipPath></defs><sodipodi:namedview
     id="namedview2086"
     pagecolor="#ffffff"
     bordercolor="#666666"
     borderopacity="1.0"
     inkscape:pageshadow="2"
     inkscape:pageopacity="0.0"
     inkscape:pagecheckerboard="0"
     showgrid="false"
     width="383.168px"
     inkscape:zoom="3.1477273"
     inkscape:cx="301.01083"
     inkscape:cy="192.6787"
     inkscape:window-width="3840"
     inkscape:window-height="2160"
     inkscape:window-x="3840"
     inkscape:window-y="0"
     inkscape:window-maximized="1"
     inkscape:current-layer="g2090" /><g
     id="g2090"
     inkscape:groupmode="layer"
     inkscape:label="ink_ext_XXXXXX"
     transform="matrix(1.3333333,0,0,-1.3333333,0,1056)"><path
       d="m 287.126,690.32404 -0.289,6.433 -0.865,6.408 -1.438,6.356 -2.006,6.279 -2.565,6.176 -3.113,6.049 -3.65,5.897 -4.171,5.721 -4.676,5.523 -5.162,5.301 -5.628,5.06 -6.069,4.797 -6.488,4.515 -6.88,4.216 -7.243,3.898 -7.579,3.566 -7.884,3.218 -8.156,2.858 -8.396,2.487 -8.603,2.106 -8.774,1.715 -8.91,1.318 -9.011,0.916 -9.074,0.51 -9.102,0.103 -9.093,-0.307 -9.047,-0.713 -8.965,-1.118 -8.846,-1.518 -8.693,-1.911 -8.504,-2.297 -8.28,-2.674 -8.024,-3.04 -7.735,-3.394 -7.415,-3.733 -7.066,-4.059 -6.687,-4.368 -6.281,-4.658 -5.852,-4.931 -5.397,-5.184 -4.922,-5.415 -4.426,-5.625 -3.912,-5.812 -3.383,-5.975 -2.841,-6.116 -2.286,-6.23 -1.723,-6.321 -1.152,-6.385 -0.578,-6.424 v -6.437 l 0.578,-6.424 1.152,-6.384 1.723,-6.321 2.286,-6.231 2.841,-6.115 3.383,-5.976 3.912,-5.812 4.426,-5.625 4.922,-5.415 5.397,-5.183 5.852,-4.931 6.281,-4.659 6.687,-4.367 7.066,-4.059 7.415,-3.734 7.735,-3.394 8.024,-3.04 8.28,-2.673 8.504,-2.298 8.693,-1.911 8.846,-1.518 8.965,-1.117 9.047,-0.714 9.093,-0.306 9.102,0.102 9.074,0.51 9.011,0.916 8.91,1.319 8.774,1.715 8.603,2.105 8.396,2.487 8.156,2.858 7.884,3.219 7.579,3.565 7.243,3.898 6.88,4.216 6.488,4.515 6.069,4.797 5.628,5.06 5.162,5.302 4.676,5.523 4.171,5.721 3.65,5.897 3.113,6.049 2.565,6.176 2.006,6.278 1.438,6.357 0.865,6.407 0.289,6.434"
       style="fill:none;stroke:#000000;stroke-width:0.5;stroke-linecap:butt;stroke-linejoin:round;stroke-miterlimit:10;stroke-dasharray:none;stroke-opacity:1"
       id="path5854" /><path
       d="m 287.126,690.32404 -0.145,4.549 -0.432,4.531 -0.72,4.494 -1.002,4.44 -1.283,4.367 -1.556,4.277 -1.825,4.17 -2.086,4.045 -2.338,3.906 -2.581,3.749 -2.813,3.577 -3.035,3.392 -3.244,3.193 -3.44,2.981 -3.622,2.757 -3.789,2.521 -3.942,2.275 -4.078,2.021 -4.199,1.759 -4.301,1.489 -4.387,1.213 -4.455,0.932 -4.505,0.647 -4.537,0.361 -4.551,0.073 -4.547,-0.217 -4.523,-0.505 -4.483,-0.79 -4.422,-1.073 -4.347,-1.351 -4.252,-1.625 -4.14,-1.891 -4.012,-2.149 -3.868,-2.4 -3.707,-2.64 -3.533,-2.87 -3.344,-3.088 -3.14,-3.294 -2.926,-3.487 -2.699,-3.665 -2.46,-3.829 -2.214,-3.977 -1.956,-4.11 -1.691,-4.226 -1.42,-4.324 -1.144,-4.406 -0.861,-4.469 -0.576,-4.515 -0.289,-4.543 v -4.551 l 0.289,-4.543 0.576,-4.515 0.861,-4.469 1.144,-4.405 1.42,-4.325 1.691,-4.225 1.956,-4.11 2.214,-3.977 2.46,-3.829 2.699,-3.665 2.926,-3.487 3.14,-3.294 3.344,-3.089 3.533,-2.87 3.707,-2.64 3.868,-2.399 4.012,-2.15 4.14,-1.891 4.252,-1.625 4.347,-1.35 4.422,-1.074 4.483,-0.79 4.523,-0.505 4.547,-0.216 4.551,0.072 4.537,0.361 4.505,0.648 4.455,0.932 4.387,1.213 4.301,1.488 4.199,1.759 4.078,2.021 3.942,2.275 3.789,2.522 3.622,2.757 3.44,2.98 3.244,3.193 3.035,3.392 2.813,3.578 2.581,3.749 2.338,3.905 2.086,4.045 1.825,4.17 1.556,4.277 1.283,4.367 1.002,4.44 0.72,4.494 0.432,4.532 0.145,4.549"
       style="fill:none;stroke:#000000;stroke-width:0.5;stroke-linecap:butt;stroke-linejoin:round;stroke-miterlimit:10;stroke-dasharray:none;stroke-opacity:1"
       id="path5856" /><path
       d="m 143.67,690.32404 -0.144,4.549 -0.433,4.531 -0.719,4.494 -1.003,4.44 -1.282,4.367 -1.557,4.277 -1.825,4.17 -2.086,4.045 -2.337,3.906 -2.582,3.749 -2.813,3.577 -3.035,3.392 -3.244,3.193 -3.44,2.981 -3.622,2.757 -3.789,2.521 -3.942,2.275 -4.078,2.021 -4.198,1.759 -4.301,1.489 -4.388,1.213 -4.455,0.932 -4.505,0.647 -4.537,0.361 -4.551,0.073 -4.546,-0.217 -4.524,-0.505 -4.482,-0.79 -4.424,-1.073 -4.346,-1.351 -4.252,-1.625 -4.14,-1.891 -4.012,-2.149 -3.867,-2.4 -3.708,-2.64 -3.533,-2.87 -3.343,-3.088 -3.141,-3.294 -2.925,-3.487 -2.699,-3.665 -2.461,-3.829 -2.213,-3.977 -1.956,-4.11 -1.692,-4.226 -1.42,-4.324 -1.143,-4.406 -0.862,-4.469 -0.576,-4.515 -0.289,-4.543 v -4.551 l 0.289,-4.543 0.576,-4.515 0.862,-4.469 1.143,-4.405 1.42,-4.325 1.692,-4.225 1.956,-4.11 2.213,-3.977 2.461,-3.829 2.699,-3.665 2.925,-3.487 3.141,-3.294 3.343,-3.089 3.533,-2.87 3.708,-2.64 3.867,-2.399 4.012,-2.15 4.14,-1.891 4.252,-1.625 4.346,-1.35 4.424,-1.074 4.482,-0.79 4.524,-0.505 4.546,-0.216 4.551,0.072 4.537,0.361 4.505,0.648 4.455,0.932 4.388,1.213 4.301,1.488 4.198,1.759 4.078,2.021 3.942,2.275 3.789,2.522 3.622,2.757 3.44,2.98 3.244,3.193 3.035,3.392 2.813,3.578 2.582,3.749 2.337,3.905 2.086,4.045 1.825,4.17 1.557,4.277 1.282,4.367 1.003,4.44 0.719,4.494 0.433,4.532 0.144,4.549"
       style="fill:none;stroke:#000000;stroke-width:0.5;stroke-linecap:butt;stroke-linejoin:round;stroke-miterlimit:10;stroke-dasharray:none;stroke-opacity:1"
       id="path5858" /></g></svg>
