<?xml version="1.0" encoding="UTF-8" standalone="no"?>
<!-- Created with Inkscape (http://www.inkscape.org/) -->

<svg
   version="1.1"
   id="svg2084"
   xml:space="preserve"
   width="383.168"
   height="128.16"
   viewBox="0 0 383.168 128.16001"
   sodipodi:docname="3splits_alternative.svg"
   inkscape:version="1.1.1 (3bf5ae0d25, 2021-09-20, custom)"
   xmlns:inkscape="http://www.inkscape.org/namespaces/inkscape"
   xmlns:sodipodi="http://sodipodi.sourceforge.net/DTD/sodipodi-0.dtd"
   xmlns="http://www.w3.org/2000/svg"
   xmlns:svg="http://www.w3.org/2000/svg"><defs
     id="defs2088"><clipPath
       clipPathUnits="userSpaceOnUse"
       id="clipPath2104"><path
         d="M 950,2570 H 5150 V 5340 H 950 Z"
         id="path2102" /></clipPath><clipPath
       clipPathUnits="userSpaceOnUse"
       id="clipPath3065"><path
         d="M 950,2570 H 5150 V 5340 H 950 Z"
         id="path3063" /></clipPath><clipPath
       clipPathUnits="userSpaceOnUse"
       id="clipPath3899"><path
         d="M 950,2380 H 5150 V 5530 H 950 Z"
         id="path3897" /></clipPath><clipPath
       clipPathUnits="userSpaceOnUse"
       id="clipPath4922"><path
         d="M 950,2570 H 5150 V 5340 H 950 Z"
         id="path4920" /></clipPath></defs><sodipodi:namedview
     id="namedview2086"
     pagecolor="#ffffff"
     bordercolor="#666666"
     borderopacity="1.0"
     inkscape:pageshadow="2"
     inkscape:pageopacity="0.0"
     inkscape:pagecheckerboard="0"
     showgrid="false"
     width="383.168px"
     inkscape:zoom="3.1477273"
     inkscape:cx="301.01083"
     inkscape:cy="192.6787"
     inkscape:window-width="3840"
     inkscape:window-height="2160"
     inkscape:window-x="3840"
     inkscape:window-y="0"
     inkscape:window-maximized="1"
     inkscape:current-layer="g2090" /><g
     id="g2090"
     inkscape:groupmode="layer"
     inkscape:label="ink_ext_XXXXXX"
     transform="matrix(1.3333333,0,0,-1.3333333,0,1056)"><path
       d="m 287.126,743.94002 -0.289,3.033 -0.865,3.02 -1.438,2.996 -2.006,2.96 -2.565,2.911 -3.113,2.851 -3.649,2.78 -4.171,2.697 -4.677,2.603 -5.161,2.499 -5.627,2.386 -6.07,2.261 -6.487,2.128 -6.879,1.987 -7.244,1.838 -7.579,1.681 -7.883,1.517 -8.156,1.347 -8.396,1.172 -8.602,0.993 -8.774,0.809 -8.909,0.621 -9.01,0.432 -9.074,0.24 -9.102,0.048 -9.093,-0.144 -9.046,-0.337 -8.964,-0.526 -8.846,-0.716 -8.693,-0.901 -8.503,-1.083 -8.28,-1.26 -8.024,-1.433 -7.735,-1.6 -7.414,-1.76 -7.065,-1.913 -6.687,-2.059 -6.282,-2.196 -5.851,-2.324 -5.397,-2.443 -4.922,-2.553 -4.425,-2.652 -3.912,-2.739 -3.384,-2.817 -2.84,-2.883 -2.286,-2.937 -1.723,-2.979 -1.152,-3.01 -0.577,-3.028 v -3.034 l 0.577,-3.029 1.152,-3.009 1.723,-2.98 2.286,-2.937 2.84,-2.883 3.384,-2.817 3.912,-2.739 4.425,-2.652 4.922,-2.552 5.397,-2.444 5.851,-2.324 6.282,-2.196 6.687,-2.059 7.065,-1.913 7.414,-1.76 7.735,-1.6 8.024,-1.433 8.28,-1.26 8.503,-1.083 8.693,-0.901 8.846,-0.715 8.964,-0.527 9.046,-0.337 9.093,-0.143 9.102,0.047 9.074,0.241 9.01,0.431 8.909,0.622 8.774,0.809 8.602,0.992 8.396,1.172 8.156,1.347 7.883,1.518 7.579,1.681 7.244,1.837 6.879,1.987 6.487,2.128 6.07,2.262 5.627,2.385 5.161,2.499 4.677,2.603 4.171,2.698 3.649,2.779 3.113,2.851 2.565,2.912 2.006,2.96 1.438,2.996 0.865,3.02 0.289,3.033"
       style="fill:none;stroke:#000000;stroke-width:0.5;stroke-linecap:butt;stroke-linejoin:round;stroke-miterlimit:10;stroke-dasharray:none;stroke-opacity:1"
       id="path4974" /><path
       d="m 191.493,743.94002 -0.097,3.033 -0.288,3.02 -0.48,2.996 -0.668,2.96 -0.855,2.911 -1.038,2.851 -1.216,2.78 -1.391,2.697 -1.558,2.603 -1.721,2.499 -1.876,2.386 -2.022,2.261 -2.163,2.128 -2.293,1.987 -2.415,1.838 -2.526,1.681 -2.627,1.517 -2.719,1.347 -2.799,1.172 -2.867,0.993 -2.925,0.809 -2.97,0.621 -3.003,0.432 -3.025,0.24 -3.034,0.048 -3.03,-0.144 -3.016,-0.337 -2.988,-0.526 -2.949,-0.716 -2.897,-0.901 -2.835,-1.083 -2.76,-1.26 -2.674,-1.433 -2.579,-1.6 -2.471,-1.76 -2.355,-1.913 -2.229,-2.059 -2.094,-2.196 -1.95,-2.324 -1.799,-2.443 -1.641,-2.553 -1.475,-2.652 -1.304,-2.739 -1.128,-2.817 -0.947,-2.883 -0.761,-2.937 -0.575,-2.979 -0.384,-3.01 -0.192,-3.028 v -3.034 l 0.192,-3.029 0.384,-3.009 0.575,-2.98 0.761,-2.937 0.947,-2.883 1.128,-2.817 1.304,-2.739 1.475,-2.652 1.641,-2.552 1.799,-2.444 1.95,-2.324 2.094,-2.196 2.229,-2.059 2.355,-1.913 2.471,-1.76 2.579,-1.6 2.674,-1.433 2.76,-1.26 2.835,-1.083 2.897,-0.901 2.949,-0.715 2.988,-0.527 3.016,-0.337 3.03,-0.143 3.034,0.047 3.025,0.241 3.003,0.431 2.97,0.622 2.925,0.809 2.867,0.992 2.799,1.172 2.719,1.347 2.627,1.518 2.526,1.681 2.415,1.837 2.293,1.987 2.163,2.128 2.022,2.262 1.876,2.385 1.721,2.499 1.558,2.603 1.391,2.698 1.216,2.779 1.038,2.851 0.855,2.912 0.668,2.96 0.48,2.996 0.288,3.02 0.097,3.033"
       style="fill:none;stroke:#000000;stroke-width:0.5;stroke-linecap:butt;stroke-linejoin:round;stroke-miterlimit:10;stroke-dasharray:none;stroke-opacity:1"
       id="path4976" /><path
       d="m 287.126,743.94002 -0.096,3.033 -0.289,3.02 -0.479,2.996 -0.669,2.96 -0.855,2.911 -1.037,2.851 -1.217,2.78 -1.39,2.697 -1.559,2.603 -1.721,2.499 -1.875,2.386 -2.023,2.261 -2.163,2.128 -2.293,1.987 -2.415,1.838 -2.526,1.681 -2.628,1.517 -2.718,1.347 -2.799,1.172 -2.867,0.993 -2.925,0.809 -2.969,0.621 -3.004,0.432 -3.025,0.24 -3.033,0.048 -3.031,-0.144 -3.016,-0.337 -2.988,-0.526 -2.949,-0.716 -2.897,-0.901 -2.835,-1.083 -2.759,-1.26 -2.675,-1.433 -2.578,-1.6 -2.472,-1.76 -2.355,-1.913 -2.229,-2.059 -2.094,-2.196 -1.95,-2.324 -1.799,-2.443 -1.64,-2.553 -1.476,-2.652 -1.304,-2.739 -1.128,-2.817 -0.946,-2.883 -0.763,-2.937 -0.574,-2.979 -0.384,-3.01 -0.193,-3.028 v -3.034 l 0.193,-3.029 0.384,-3.009 0.574,-2.98 0.763,-2.937 0.946,-2.883 1.128,-2.817 1.304,-2.739 1.476,-2.652 1.64,-2.552 1.799,-2.444 1.95,-2.324 2.094,-2.196 2.229,-2.059 2.355,-1.913 2.472,-1.76 2.578,-1.6 2.675,-1.433 2.759,-1.26 2.835,-1.083 2.897,-0.901 2.949,-0.715 2.988,-0.527 3.016,-0.337 3.031,-0.143 3.033,0.047 3.025,0.241 3.004,0.431 2.969,0.622 2.925,0.809 2.867,0.992 2.799,1.172 2.718,1.347 2.628,1.518 2.526,1.681 2.415,1.837 2.293,1.987 2.163,2.128 2.023,2.262 1.875,2.385 1.721,2.499 1.559,2.603 1.39,2.698 1.217,2.779 1.037,2.851 0.855,2.912 0.669,2.96 0.479,2.996 0.289,3.02 0.096,3.033"
       style="fill:none;stroke:#000000;stroke-width:0.5;stroke-linecap:butt;stroke-linejoin:round;stroke-miterlimit:10;stroke-dasharray:none;stroke-opacity:1"
       id="path4978" /><path
       d="m 95.859,743.94002 -0.096,3.033 -0.288,3.02 -0.48,2.996 -0.668,2.96 -0.855,2.911 -1.038,2.851 -1.216,2.78 -1.391,2.697 -1.558,2.603 -1.721,2.499 -1.875,2.386 -2.024,2.261 -2.162,2.128 -2.293,1.987 -2.415,1.838 -2.526,1.681 -2.628,1.517 -2.718,1.347 -2.799,1.172 -2.867,0.993 -2.925,0.809 -2.97,0.621 -3.003,0.432 -3.025,0.24 -3.034,0.048 -3.031,-0.144 -3.015,-0.337 -2.988,-0.526 -2.949,-0.716 -2.897,-0.901 -2.835,-1.083 -2.76,-1.26 -2.674,-1.433 -2.578,-1.6 -2.472,-1.76 -2.355,-1.913 -2.229,-2.059 -2.094,-2.196 -1.951,-2.324 -1.799,-2.443 -1.64,-2.553 -1.475,-2.652 -1.304,-2.739 -1.128,-2.817 -0.947,-2.883 -0.762,-2.937 -0.574,-2.979 -0.384,-3.01 -0.193,-3.028 v -3.034 l 0.193,-3.029 0.384,-3.009 0.574,-2.98 0.762,-2.937 0.947,-2.883 1.128,-2.817 1.304,-2.739 1.475,-2.652 1.64,-2.552 1.799,-2.444 1.951,-2.324 2.094,-2.196 2.229,-2.059 2.355,-1.913 2.472,-1.76 2.578,-1.6 2.674,-1.433 2.76,-1.26 2.835,-1.083 2.897,-0.901 2.949,-0.715 2.988,-0.527 3.015,-0.337 3.031,-0.143 3.034,0.047 3.025,0.241 3.003,0.431 2.97,0.622 2.925,0.809 2.867,0.992 2.799,1.172 2.718,1.347 2.628,1.518 2.526,1.681 2.415,1.837 2.293,1.987 2.162,2.128 2.024,2.262 1.875,2.385 1.721,2.499 1.558,2.603 1.391,2.698 1.216,2.779 1.038,2.851 0.855,2.912 0.668,2.96 0.48,2.996 0.288,3.02 0.096,3.033"
       style="fill:none;stroke:#000000;stroke-width:0.5;stroke-linecap:butt;stroke-linejoin:round;stroke-miterlimit:10;stroke-dasharray:none;stroke-opacity:1"
       id="path4980" /></g></svg>
