<?xml version="1.0" encoding="UTF-8" standalone="no"?>
<!-- Created with Inkscape (http://www.inkscape.org/) -->

<svg
   version="1.1"
   id="svg2084"
   xml:space="preserve"
   width="434.85599"
   height="134.82401"
   viewBox="0 0 434.85599 134.82401"
   sodipodi:docname="5splits.svg"
   inkscape:version="1.1.1 (3bf5ae0d25, 2021-09-20, custom)"
   xmlns:inkscape="http://www.inkscape.org/namespaces/inkscape"
   xmlns:sodipodi="http://sodipodi.sourceforge.net/DTD/sodipodi-0.dtd"
   xmlns="http://www.w3.org/2000/svg"
   xmlns:svg="http://www.w3.org/2000/svg"><defs
     id="defs2088"><clipPath
       clipPathUnits="userSpaceOnUse"
       id="clipPath2104"><path
         d="M 950,2570 H 5150 V 5340 H 950 Z"
         id="path2102" /></clipPath><clipPath
       clipPathUnits="userSpaceOnUse"
       id="clipPath3065"><path
         d="M 950,2570 H 5150 V 5340 H 950 Z"
         id="path3063" /></clipPath><clipPath
       clipPathUnits="userSpaceOnUse"
       id="clipPath3899"><path
         d="M 950,2380 H 5150 V 5530 H 950 Z"
         id="path3897" /></clipPath></defs><sodipodi:namedview
     id="namedview2086"
     pagecolor="#ffffff"
     bordercolor="#666666"
     borderopacity="1.0"
     inkscape:pageshadow="2"
     inkscape:pageopacity="0.0"
     inkscape:pagecheckerboard="0"
     showgrid="false"
     width="383.168px"
     inkscape:zoom="3.1477273"
     inkscape:cx="301.01083"
     inkscape:cy="192.6787"
     inkscape:window-width="3840"
     inkscape:window-height="2160"
     inkscape:window-x="3840"
     inkscape:window-y="0"
     inkscape:window-maximized="1"
     inkscape:current-layer="g2090" /><g
     id="g2090"
     inkscape:groupmode="layer"
     inkscape:label="ink_ext_XXXXXX"
     transform="matrix(1.3333333,0,0,-1.3333333,0,1056)"><path
       d="m 325.892,741.44102 -0.328,3.191 -0.982,3.178 -1.632,3.153 -2.277,3.115 -2.91,3.063 -3.534,3 -4.143,2.925 -4.734,2.838 -5.308,2.74 -5.858,2.63 -6.388,2.51 -6.889,2.379 -7.364,2.24 -7.808,2.091 -8.222,1.933 -8.602,1.769 -8.948,1.596 -9.258,1.418 -9.53,1.233 -9.764,1.045 -9.958,0.85 -10.114,0.655 -10.227,0.454 -10.3,0.253 -10.33,0.05 -10.321,-0.151 -10.268,-0.354 -10.176,-0.555 -10.04,-0.753 -9.867,-0.947 -9.651,-1.14 -9.399,-1.326 -9.107,-1.508 -8.78,-1.684 -8.416,-1.852 -8.02,-2.013 -7.589,-2.166 -7.131,-2.311 -6.641,-2.446 -6.126,-2.571 -5.586,-2.686 -5.024,-2.79 -4.44,-2.883 -3.84,-2.964 -3.225,-3.033 -2.594,-3.091 -1.956,-3.135 -1.307,-3.167 -0.656,-3.187 v -3.192 l 0.656,-3.187 1.307,-3.167 1.956,-3.135 2.594,-3.09 3.225,-3.034 3.84,-2.964 4.44,-2.883 5.024,-2.79 5.586,-2.686 6.126,-2.571 6.641,-2.446 7.131,-2.311 7.589,-2.166 8.02,-2.013 8.416,-1.852 8.78,-1.683 9.107,-1.509 9.399,-1.326 9.651,-1.14 9.867,-0.947 10.04,-0.753 10.176,-0.554 10.268,-0.354 10.321,-0.152 10.33,0.051 10.3,0.252 10.227,0.455 10.114,0.654 9.958,0.85 9.764,1.045 9.53,1.233 9.258,1.418 8.948,1.596 8.602,1.769 8.222,1.934 7.808,2.09 7.364,2.24 6.889,2.38 6.388,2.509 5.858,2.63 5.308,2.74 4.734,2.838 4.143,2.925 3.534,3 2.91,3.064 2.277,3.114 1.632,3.153 0.982,3.178 0.328,3.191"
       style="fill:none;stroke:#000000;stroke-width:0.5;stroke-linecap:butt;stroke-linejoin:round;stroke-miterlimit:10;stroke-dasharray:none;stroke-opacity:1"
       id="path3953" /><path
       d="m 213.383,741.44102 -0.101,3.191 -0.304,3.178 -0.504,3.153 -0.704,3.115 -0.899,3.063 -1.092,3 -1.28,2.925 -1.463,2.838 -1.64,2.74 -1.811,2.63 -1.974,2.51 -2.129,2.379 -2.275,2.24 -2.413,2.091 -2.541,1.933 -2.658,1.769 -2.765,1.596 -2.861,1.418 -2.945,1.233 -3.017,1.045 -3.077,0.85 -3.126,0.655 -3.16,0.454 -3.183,0.253 -3.192,0.05 -3.189,-0.151 -3.174,-0.354 -3.144,-0.555 -3.103,-0.753 -3.049,-0.947 -2.982,-1.14 -2.904,-1.326 -2.815,-1.508 -2.713,-1.684 -2.601,-1.852 -2.478,-2.013 -2.345,-2.166 -2.204,-2.311 -2.052,-2.446 -1.893,-2.571 -1.726,-2.686 -1.552,-2.79 -1.372,-2.883 -1.187,-2.964 -0.996,-3.033 -0.802,-3.091 -0.605,-3.135 -0.404,-3.167 -0.202,-3.187 v -3.192 l 0.202,-3.187 0.404,-3.167 0.605,-3.135 0.802,-3.09 0.996,-3.034 1.187,-2.964 1.372,-2.883 1.552,-2.79 1.726,-2.686 1.893,-2.571 2.052,-2.446 2.204,-2.311 2.345,-2.166 2.478,-2.013 2.601,-1.852 2.713,-1.683 2.815,-1.509 2.904,-1.326 2.982,-1.14 3.049,-0.947 3.103,-0.753 3.144,-0.554 3.174,-0.354 3.189,-0.152 3.192,0.051 3.183,0.252 3.16,0.455 3.126,0.654 3.077,0.85 3.017,1.045 2.945,1.233 2.861,1.418 2.765,1.596 2.658,1.769 2.541,1.934 2.413,2.09 2.275,2.24 2.129,2.38 1.974,2.509 1.811,2.63 1.64,2.74 1.463,2.838 1.28,2.925 1.092,3 0.899,3.064 0.704,3.114 0.504,3.153 0.304,3.178 0.101,3.191"
       style="fill:none;stroke:#000000;stroke-width:0.5;stroke-linecap:butt;stroke-linejoin:round;stroke-miterlimit:10;stroke-dasharray:none;stroke-opacity:1"
       id="path3955" /><path
       d="m 325.892,741.44102 -0.031,0.986 -0.094,0.983 -0.156,0.974 -0.217,0.962 -0.278,0.947 -0.338,0.927 -0.395,0.904 -0.452,0.877 -0.507,0.846 -0.56,0.813 -0.61,0.775 -0.657,0.736 -0.703,0.692 -0.746,0.646 -0.785,0.597 -0.821,0.547 -0.855,0.493 -0.884,0.438 -0.91,0.382 -0.933,0.322 -0.951,0.263 -0.965,0.202 -0.977,0.14 -0.983,0.079 -0.987,0.016 -0.986,-0.048 -0.98,-0.109 -0.972,-0.171 -0.958,-0.233 -0.943,-0.293 -0.921,-0.352 -0.898,-0.41 -0.87,-0.466 -0.838,-0.52 -0.803,-0.572 -0.766,-0.622 -0.725,-0.67 -0.681,-0.714 -0.634,-0.755 -0.585,-0.795 -0.534,-0.83 -0.479,-0.862 -0.424,-0.891 -0.367,-0.916 -0.308,-0.937 -0.248,-0.955 -0.186,-0.969 -0.125,-0.979 -0.063,-0.985 v -0.986 l 0.063,-0.985 0.125,-0.979 0.186,-0.968 0.248,-0.956 0.308,-0.937 0.367,-0.916 0.424,-0.891 0.479,-0.862 0.534,-0.83 0.585,-0.795 0.634,-0.755 0.681,-0.714 0.725,-0.67 0.766,-0.622 0.803,-0.572 0.838,-0.52 0.87,-0.466 0.898,-0.41 0.921,-0.352 0.943,-0.293 0.958,-0.233 0.972,-0.171 0.98,-0.11 0.986,-0.047 0.987,0.016 0.983,0.079 0.977,0.14 0.965,0.202 0.951,0.263 0.933,0.322 0.91,0.382 0.884,0.438 0.855,0.493 0.821,0.547 0.785,0.597 0.746,0.646 0.703,0.692 0.657,0.736 0.61,0.775 0.56,0.813 0.507,0.846 0.452,0.877 0.395,0.904 0.338,0.927 0.278,0.947 0.217,0.962 0.156,0.975 0.094,0.982 0.031,0.986"
       style="fill:none;stroke:#000000;stroke-width:0.5;stroke-linecap:butt;stroke-linejoin:round;stroke-miterlimit:10;stroke-dasharray:none;stroke-opacity:1"
       id="path3957" /><path
       d="m 213.383,741.44102 -0.101,3.191 -0.304,3.178 -0.504,3.153 -0.704,3.115 -0.899,3.063 -1.092,3 -1.28,2.925 -1.463,2.838 -1.64,2.74 -1.811,2.63 -1.974,2.51 -2.129,2.379 -2.275,2.24 -2.413,2.091 -2.541,1.933 -2.658,1.769 -2.765,1.596 -2.861,1.418 -2.945,1.233 -3.017,1.045 -3.077,0.85 -3.126,0.655 -3.16,0.454 -3.183,0.253 -3.192,0.05 -3.189,-0.151 -3.174,-0.354 -3.144,-0.555 -3.103,-0.753 -3.049,-0.947 -2.982,-1.14 -2.904,-1.326 -2.815,-1.508 -2.713,-1.684 -2.601,-1.852 -2.478,-2.013 -2.345,-2.166 -2.204,-2.311 -2.052,-2.446 -1.893,-2.571 -1.726,-2.686 -1.552,-2.79 -1.372,-2.883 -1.187,-2.964 -0.996,-3.033 -0.802,-3.091 -0.605,-3.135 -0.404,-3.167 -0.202,-3.187 v -3.192 l 0.202,-3.187 0.404,-3.167 0.605,-3.135 0.802,-3.09 0.996,-3.034 1.187,-2.964 1.372,-2.883 1.552,-2.79 1.726,-2.686 1.893,-2.571 2.052,-2.446 2.204,-2.311 2.345,-2.166 2.478,-2.013 2.601,-1.852 2.713,-1.683 2.815,-1.509 2.904,-1.326 2.982,-1.14 3.049,-0.947 3.103,-0.753 3.144,-0.554 3.174,-0.354 3.189,-0.152 3.192,0.051 3.183,0.252 3.16,0.455 3.126,0.654 3.077,0.85 3.017,1.045 2.945,1.233 2.861,1.418 2.765,1.596 2.658,1.769 2.541,1.934 2.413,2.09 2.275,2.24 2.129,2.38 1.974,2.509 1.811,2.63 1.64,2.74 1.463,2.838 1.28,2.925 1.092,3 0.899,3.064 0.704,3.114 0.504,3.153 0.304,3.178 0.101,3.191"
       style="fill:none;stroke:#000000;stroke-width:0.5;stroke-linecap:butt;stroke-linejoin:round;stroke-miterlimit:10;stroke-dasharray:none;stroke-opacity:1"
       id="path3959" /><path
       d="m 31.339,741.44102 -0.031,0.986 -0.094,0.983 -0.156,0.974 -0.218,0.962 -0.278,0.947 -0.337,0.927 -0.395,0.904 -0.452,0.877 -0.507,0.846 -0.56,0.813 -0.61,0.775 -0.657,0.736 -0.704,0.692 -0.745,0.646 -0.785,0.597 -0.822,0.547 -0.855,0.493 -0.884,0.438 -0.91,0.382 -0.932,0.322 -0.951,0.263 -0.966,0.202 -0.976,0.14 -0.984,0.079 -0.986,0.016 -0.986,-0.048 -0.98,-0.109 -0.972,-0.171 -0.959,-0.233 -0.942,-0.293 -0.922,-0.352 -0.897,-0.41 -0.87,-0.466 -0.838,-0.52 -0.804,-0.572 -0.766,-0.622 -0.724,-0.67 -0.681,-0.714 -0.634,-0.755 -0.586,-0.795 -0.533,-0.83 -0.479,-0.862 -0.425,-0.891 -0.366,-0.916 -0.308,-0.937 -0.248,-0.955 -0.187,-0.969 -0.125,-0.979 -0.062,-0.985 v -0.986 l 0.062,-0.985 0.125,-0.979 0.187,-0.968 0.248,-0.956 0.308,-0.937 0.366,-0.916 0.425,-0.891 0.479,-0.862 0.533,-0.83 0.586,-0.795 0.634,-0.755 0.681,-0.714 0.724,-0.67 0.766,-0.622 0.804,-0.572 0.838,-0.52 0.87,-0.466 0.897,-0.41 0.922,-0.352 0.942,-0.293 0.959,-0.233 0.972,-0.171 0.98,-0.11 0.986,-0.047 0.986,0.016 0.984,0.079 0.976,0.14 0.966,0.202 0.951,0.263 0.932,0.322 0.91,0.382 0.884,0.438 0.855,0.493 0.822,0.547 0.785,0.597 0.745,0.646 0.704,0.692 0.657,0.736 0.61,0.775 0.56,0.813 0.507,0.846 0.452,0.877 0.395,0.904 0.337,0.927 0.278,0.947 0.218,0.962 0.156,0.975 0.094,0.982 0.031,0.986"
       style="fill:none;stroke:#000000;stroke-width:0.5;stroke-linecap:butt;stroke-linejoin:round;stroke-miterlimit:10;stroke-dasharray:none;stroke-opacity:1"
       id="path3961" /><path
       d="m 294.795,741.44102 -0.082,2.582 -0.245,2.571 -0.408,2.551 -0.569,2.519 -0.728,2.479 -0.884,2.427 -1.035,2.366 -1.184,2.296 -1.326,2.217 -1.465,2.127 -1.597,2.03 -1.722,1.926 -1.841,1.812 -1.953,1.691 -2.055,1.564 -2.151,1.431 -2.236,1.292 -2.315,1.147 -2.382,0.998 -2.441,0.844 -2.49,0.689 -2.528,0.529 -2.557,0.367 -2.575,0.205 -2.583,0.041 -2.58,-0.123 -2.567,-0.286 -2.544,-0.448 -2.51,-0.609 -2.467,-0.767 -2.413,-0.922 -2.349,-1.074 -2.277,-1.219 -2.195,-1.362 -2.104,-1.499 -2.005,-1.628 -1.897,-1.753 -1.783,-1.869 -1.66,-1.979 -1.532,-2.08 -1.396,-2.173 -1.256,-2.257 -1.11,-2.332 -0.96,-2.399 -0.806,-2.453 -0.649,-2.501 -0.489,-2.536 -0.327,-2.563 -0.164,-2.577 v -2.584 l 0.164,-2.577 0.327,-2.563 0.489,-2.536 0.649,-2.5 0.806,-2.455 0.96,-2.398 1.11,-2.332 1.256,-2.257 1.396,-2.173 1.532,-2.08 1.66,-1.979 1.783,-1.869 1.897,-1.753 2.005,-1.628 2.104,-1.499 2.195,-1.362 2.277,-1.219 2.349,-1.074 2.413,-0.921 2.467,-0.768 2.51,-0.608 2.544,-0.449 2.567,-0.286 2.58,-0.123 2.583,0.041 2.575,0.205 2.557,0.367 2.528,0.529 2.49,0.689 2.441,0.844 2.382,0.998 2.315,1.147 2.236,1.292 2.151,1.431 2.055,1.564 1.953,1.691 1.841,1.812 1.722,1.926 1.597,2.03 1.465,2.127 1.326,2.217 1.184,2.296 1.035,2.366 0.884,2.427 0.728,2.479 0.569,2.519 0.408,2.551 0.245,2.571 0.082,2.582"
       style="fill:none;stroke:#000000;stroke-width:0.5;stroke-linecap:butt;stroke-linejoin:round;stroke-miterlimit:10;stroke-dasharray:none;stroke-opacity:1"
       id="path3963" /><path
       d="m 112.751,741.44102 -0.082,2.582 -0.245,2.571 -0.408,2.551 -0.569,2.519 -0.728,2.479 -0.884,2.427 -1.035,2.366 -1.184,2.296 -1.326,2.217 -1.465,2.127 -1.597,2.03 -1.722,1.926 -1.841,1.812 -1.953,1.691 -2.055,1.564 -2.151,1.431 -2.236,1.292 -2.315,1.147 -2.382,0.998 -2.441,0.844 -2.49,0.689 -2.528,0.529 -2.557,0.367 -2.575,0.205 -2.583,0.041 -2.58,-0.123 -2.567,-0.286 -2.544,-0.448 -2.51,-0.609 -2.467,-0.767 -2.413,-0.922 -2.349,-1.074 -2.277,-1.219 -2.195,-1.362 -2.104,-1.499 -2.005,-1.628 -1.897,-1.753 -1.783,-1.869 -1.66,-1.979 -1.532,-2.08 -1.396,-2.173 -1.256,-2.257 -1.11,-2.332 -0.96,-2.399 -0.806,-2.453 -0.649,-2.501 -0.489,-2.536 -0.327,-2.563 -0.163,-2.577 v -2.584 l 0.163,-2.577 0.327,-2.563 0.489,-2.536 0.649,-2.5 0.806,-2.455 0.96,-2.398 1.11,-2.332 1.256,-2.257 1.396,-2.173 1.532,-2.08 1.66,-1.979 1.783,-1.869 1.897,-1.753 2.005,-1.628 2.104,-1.499 2.195,-1.362 2.277,-1.219 2.349,-1.074 2.413,-0.921 2.467,-0.768 2.51,-0.608 2.544,-0.449 2.567,-0.286 2.58,-0.123 2.583,0.041 2.575,0.205 2.557,0.367 2.528,0.529 2.49,0.689 2.441,0.844 2.382,0.998 2.315,1.147 2.236,1.292 2.151,1.431 2.055,1.564 1.953,1.691 1.841,1.812 1.722,1.926 1.597,2.03 1.465,2.127 1.326,2.217 1.184,2.296 1.035,2.366 0.884,2.427 0.728,2.479 0.569,2.519 0.408,2.551 0.245,2.571 0.082,2.582"
       style="fill:none;stroke:#000000;stroke-width:0.5;stroke-linecap:butt;stroke-linejoin:round;stroke-miterlimit:10;stroke-dasharray:none;stroke-opacity:1"
       id="path3965" /></g></svg>
