<?xml version="1.0" encoding="UTF-8" standalone="no"?>
<!-- Created with Inkscape (http://www.inkscape.org/) -->

<svg
   width="101.38mm"
   height="22.694mm"
   viewBox="0 0 101.38 22.694"
   version="1.1"
   id="svg5"
   inkscape:version="1.1.1 (3bf5ae0d25, 2021-09-20, custom)"
   sodipodi:docname="7splits.svg"
   xmlns:inkscape="http://www.inkscape.org/namespaces/inkscape"
   xmlns:sodipodi="http://sodipodi.sourceforge.net/DTD/sodipodi-0.dtd"
   xmlns="http://www.w3.org/2000/svg"
   xmlns:svg="http://www.w3.org/2000/svg">
  <sodipodi:namedview
     id="namedview7"
     pagecolor="#ffffff"
     bordercolor="#666666"
     borderopacity="1.0"
     inkscape:pageshadow="2"
     inkscape:pageopacity="0.0"
     inkscape:pagecheckerboard="0"
     inkscape:document-units="mm"
     showgrid="false"
     width="101.38mm"
     inkscape:zoom="2.9611953"
     inkscape:cx="232.84516"
     inkscape:cy="-18.067029"
     inkscape:window-width="3840"
     inkscape:window-height="2160"
     inkscape:window-x="3840"
     inkscape:window-y="0"
     inkscape:window-maximized="1"
     inkscape:current-layer="layer1" />
  <defs
     id="defs2" />
  <g
     inkscape:label="Layer 1"
     inkscape:groupmode="layer"
     id="layer1">
    <path
       d="m 101.29173,11.346714 -0.10195,-0.71402 -0.30516,-0.7111995 -0.50729,-0.70556 -0.707675,-0.69709 -0.90452,-0.68544 -1.0982,-0.67169 -1.28764,-0.65441 -1.47108,-0.635 -1.64959,-0.61312 -1.82069,-0.58844 -1.98508,-0.56162 -2.14101,-0.53269 -2.28847,-0.5013 -2.4264,-0.46779 -2.55553,-0.4325 -2.67335,-0.39582 -2.780585,-0.35736 -2.87725,-0.3175 -2.96157,-0.27587 -3.0346,-0.23354 -3.09492,-0.1905 -3.14289,-0.14641 -3.17818,-0.10195 -3.200751,-0.0564 -3.210984,-0.0113 -3.207103,0.0339 -3.191228,0.0794 -3.1623,0.12383 -3.120673,0.16862 -3.065991,0.21238 -2.99967,0.2547 -2.920683,0.29704 -2.830371,0.33726 -2.728631,0.37676 -2.61553,0.41452 -2.492304,0.45049 -2.358814,0.48472 -2.215727,0.51717 -2.064032,0.54751 -1.9040475,0.57538 -1.735631,0.60114 -1.561465,0.62441 -1.379961,0.64488 -1.193518,0.66358 -1.001818,0.67874 -0.80645,0.69145 -0.607554,0.70167 -0.406683,0.7087295 -0.203517,0.71297 v 0.71472 l 0.203517,0.71297 0.406683,0.70908 0.607554,0.70132 0.80645,0.6918 1.001818,0.67874 1.193518,0.66358 1.379961,0.64488 1.561465,0.62441 1.735631,0.60114 1.9040475,0.57538 2.064032,0.54716 2.215727,0.51717 2.358814,0.48507 2.492304,0.4505 2.61553,0.41416 2.728631,0.37676 2.830371,0.33768 2.920683,0.29655 2.99967,0.25506 3.065991,0.21209 3.120673,0.16866 3.1623,0.12418 3.191228,0.0789 3.207103,0.0342 3.210984,-0.0116 3.200751,-0.0565 3.17818,-0.10157 3.14289,-0.14633 3.09492,-0.19057 3.0346,-0.23347 2.96157,-0.2763 2.87725,-0.31711 2.780585,-0.35736 2.67335,-0.39582 2.55553,-0.4325 2.4264,-0.46814 2.28847,-0.50094 2.14101,-0.5327 1.98508,-0.56162 1.82069,-0.58879 1.64959,-0.61277 1.47108,-0.63535 1.28764,-0.65441 1.0982,-0.67133 0.90452,-0.68545 0.707675,-0.69709 0.50729,-0.70556 0.30516,-0.7112 0.10195,-0.71437"
       style="fill:none;stroke:#000000;stroke-width:0.176389;stroke-linecap:butt;stroke-linejoin:round;stroke-miterlimit:10;stroke-dasharray:none;stroke-opacity:1"
       id="path878" />
    <path
       d="m 61.94925,11.346714 -0.0226,-0.71402 -0.0677,-0.7111995 -0.11289,-0.70556 -0.15769,-0.69709 -0.20109,-0.68544 -0.24447,-0.67169 -0.28646,-0.65441 -0.32737,-0.635 -0.36725,-0.61312 -0.40498,-0.58844 -0.44168,-0.56162 -0.47661,-0.53269 -0.50905,-0.5013 -0.54011,-0.46779 -0.56832,-0.4325 -0.59514,-0.39582 -0.61842,-0.35736 -0.640288,-0.3175 -0.659342,-0.27587 -0.675217,-0.23354 -0.688622,-0.1905 -0.699205,-0.14641 -0.70732,-0.10195 -0.712258,-0.0564 -0.714375,-0.0113 -0.71367,0.0339 -0.710142,0.0794 -0.703791,0.12383 -0.694267,0.16862 -0.682272,0.21238 -0.667456,0.2547 -0.649816,0.29704 -0.630062,0.33726 -0.60713,0.37676 -0.582084,0.41452 -0.554566,0.45049 -0.524934,0.48472 -0.49283,0.51717 -0.459317,0.54751 -0.423686,0.57538 -0.386292,0.60114 -0.347486,0.62441 -0.306917,0.64488 -0.265641,0.66358 -0.222956,0.67874 -0.179564,0.69145 -0.135114,0.70167 -0.09066,0.7087295 -0.04515,0.71297 v 0.71472 l 0.04515,0.71297 0.09066,0.70908 0.135114,0.70132 0.179564,0.6918 0.222956,0.67874 0.265641,0.66358 0.306917,0.64488 0.347486,0.62441 0.386292,0.60114 0.423686,0.57538 0.459317,0.54716 0.49283,0.51717 0.524934,0.48507 0.554566,0.4505 0.582084,0.41416 0.60713,0.37676 0.630062,0.33768 0.649816,0.29655 0.667456,0.25506 0.682272,0.21209 0.694267,0.16866 0.703791,0.12418 0.710142,0.0789 0.71367,0.0342 0.714375,-0.0116 0.712258,-0.0565 0.70732,-0.10157 0.699205,-0.14633 0.688622,-0.19057 0.675217,-0.23347 0.659342,-0.2763 0.640288,-0.31711 0.61842,-0.35736 0.59514,-0.39582 0.56832,-0.4325 0.54011,-0.46814 0.50905,-0.50094 0.47661,-0.5327 0.44168,-0.56162 0.40498,-0.58879 0.36725,-0.61277 0.32737,-0.63535 0.28646,-0.65441 0.24447,-0.67133 0.20109,-0.68545 0.15769,-0.69709 0.11289,-0.70556 0.0677,-0.7112 0.0226,-0.71437"
       style="fill:none;stroke:#000000;stroke-width:0.176389;stroke-linecap:butt;stroke-linejoin:round;stroke-miterlimit:10;stroke-dasharray:none;stroke-opacity:1"
       id="path880" />
    <path
       d="m 101.29173,11.346714 -0.005,-0.15875 -0.0152,-0.1584 -0.0254,-0.15698 -0.0349,-0.15523 -0.0448,-0.1524 -0.0543,-0.14957 -0.0639,-0.14535 -0.0727,-0.14146 -0.0818,-0.1365295 -0.09,-0.13088 -0.0984,-0.12488 -0.10618,-0.11853 -0.11324,-0.11148 -0.11995,-0.10407 -0.12665,-0.0963 -0.13229,-0.0882 -0.137585,-0.0794 -0.14252,-0.0706 -0.14676,-0.0617 -0.15028,-0.0519 -0.15311,-0.0423 -0.15557,-0.0325 -0.15769,-0.0226 -0.1584,-0.0127 -0.1591,-0.002 -0.15875,0.007 -0.1577,0.0176 -0.15663,0.0275 -0.15452,0.0374 -0.15204,0.0473 -0.14852,0.0568 -0.14464,0.066 -0.14005,0.0751 -0.13512,0.084 -0.12947,0.0921 -0.12347,0.10019 -0.11677,0.1083 -0.10971,0.11501 -0.10231,0.1217 -0.0942,0.12806 -0.0857,0.1337095 -0.0776,0.13899 -0.0684,0.14323 -0.0589,0.14781 -0.0497,0.15099 -0.0399,0.15416 -0.03,0.15593 -0.0201,0.15769 -0.0102,0.15875 v 0.15911 l 0.0102,0.15839 0.0201,0.15805 0.03,0.15593 0.0399,0.15381 0.0497,0.15099 0.0589,0.14781 0.0684,0.14358 0.0776,0.139 0.0857,0.1337 0.0942,0.12806 0.10231,0.12171 0.10971,0.115 0.11677,0.10795 0.12347,0.10019 0.12947,0.0924 0.13512,0.0836 0.14005,0.0751 0.14464,0.066 0.14852,0.0568 0.15204,0.0473 0.15452,0.0374 0.15663,0.0275 0.1577,0.0176 0.15875,0.008 0.1591,-0.002 0.1584,-0.0127 0.15769,-0.0226 0.15557,-0.0328 0.15311,-0.0423 0.15028,-0.0519 0.14676,-0.0614 0.14252,-0.0706 0.137585,-0.0797 0.13229,-0.0878 0.12665,-0.0963 0.11995,-0.10407 0.11324,-0.11147 0.10618,-0.11854 0.0984,-0.12488 0.09,-0.13123 0.0818,-0.13653 0.0727,-0.14111 0.0639,-0.1457 0.0543,-0.14958 0.0448,-0.1524 0.0349,-0.15522 0.0254,-0.15663 0.0152,-0.1584 0.005,-0.1591"
       style="fill:none;stroke:#000000;stroke-width:0.176389;stroke-linecap:butt;stroke-linejoin:round;stroke-miterlimit:10;stroke-dasharray:none;stroke-opacity:1"
       id="path882" />
    <path
       d="m 82.239255,11.346714 -0.0205,-0.64347 -0.061,-0.64064 -0.10196,-0.6357095 -0.14146,-0.62794 -0.18168,-0.61772 -0.22013,-0.60501 -0.25788,-0.58984 -0.29493,-0.57186 -0.3309,-0.55245 -0.36513,-0.53022 -0.39793,-0.50624 -0.42898,-0.47978 -0.45896,-0.45155 -0.48648,-0.42157 -0.51224,-0.38982 -0.53586,-0.35631 -0.55775,-0.32208 -0.57679,-0.28611 -0.59372,-0.24835 -0.608185,-0.21061 -0.62054,-0.1718 -0.63006,-0.13159 -0.63746,-0.0917 -0.64171,-0.0508 -0.64346,-0.0102 -0.64312,0.0303 -0.63994,0.0716 -0.63394,0.11183 -0.62547,0.1517 -0.6149,0.19085 -0.60113,0.23001 -0.58561,0.26741 -0.56762,0.30409 -0.54716,0.33937 -0.52423,0.37324 -0.49953,0.40605 -0.47307,0.43674 -0.44415,0.46602 -0.41381,0.49318 -0.38171,0.51823 -0.34783,0.54152 -0.31292,0.56268 -0.27693,0.58102 -0.23918,0.59796 -0.20109,0.61172 -0.16157,0.623 -0.12171,0.63218 -0.0815,0.6385295 -0.0409,0.64241 v 0.64382 l 0.0409,0.6424 0.0815,0.63853 0.12171,0.63218 0.16157,0.62301 0.20109,0.61171 0.23918,0.59761 0.27693,0.58138 0.31292,0.56232 0.34783,0.54152 0.38171,0.51858 0.41381,0.49318 0.44415,0.46602 0.47307,0.43674 0.49953,0.4057 0.52423,0.37359 0.54716,0.33937 0.56762,0.30409 0.58561,0.26741 0.60113,0.22966 0.6149,0.1912 0.62547,0.1517 0.63394,0.11183 0.63994,0.0713 0.64312,0.0306 0.64346,-0.0102 0.64171,-0.0509 0.63746,-0.0917 0.63006,-0.13194 0.62054,-0.17145 0.608185,-0.21061 0.59372,-0.24871 0.57679,-0.28575 0.55775,-0.32208 0.53586,-0.35666 0.51224,-0.38982 0.48648,-0.42157 0.45896,-0.45156 0.42898,-0.47977 0.39793,-0.50589 0.36513,-0.53022 0.3309,-0.55245 0.29493,-0.57221 0.25788,-0.58984 0.22013,-0.60466 0.18168,-0.61772 0.14146,-0.62794 0.10196,-0.63571 0.061,-0.64099 0.0205,-0.64347"
       style="fill:none;stroke:#000000;stroke-width:0.176389;stroke-linecap:butt;stroke-linejoin:round;stroke-miterlimit:10;stroke-dasharray:none;stroke-opacity:1"
       id="path884" />
    <path
       d="m 96.280515,11.346714 -0.0141,-0.44521 -0.0423,-0.44344 -0.0706,-0.43991 -0.0981,-0.4346195 -0.12559,-0.42722 -0.1524,-0.41875 -0.17851,-0.40816 -0.20425,-0.39582 -0.2286,-0.38241 -0.25259,-0.36689 -0.27552,-0.3503 -0.29704,-0.33197 -0.3175,-0.31256 -0.33655,-0.29175 -0.35454,-0.26952 -0.37113,-0.24694 -0.38558,-0.22261 -0.39935,-0.1979 -0.41098,-0.17216 -0.42087,-0.1457 -0.42933,-0.11888 -0.43603,-0.091 -0.44097,-0.0635 -0.44415,-0.0353 -0.44556,-0.007 -0.44485,0.0212 -0.44274,0.0494 -0.43885,0.0776 -0.43286,0.10478 -0.42545,0.13229 -0.41628,0.1591 -0.40499,0.18521 -0.39264,0.21026 -0.37888,0.23495 -0.36266,0.25823 -0.34572,0.28081 -0.32738,0.30233 -0.30727,0.32244 -0.28645,0.34114 -0.26423,0.35877 -0.2406,0.375 -0.21696,0.38912 -0.1912,0.40252 -0.16545,0.41345 -0.139,0.42334 -0.11218,0.43109 -0.0843,0.4374495 -0.0564,0.44203 -0.0282,0.4445 v 0.4452 l 0.0282,0.44485 0.0564,0.44204 0.0843,0.43709 0.11218,0.43144 0.139,0.42334 0.16545,0.41345 0.1912,0.40217 0.21696,0.38947 0.2406,0.37465 0.26423,0.35877 0.28645,0.34149 0.30727,0.32209 0.32738,0.30233 0.34572,0.28116 0.36266,0.25823 0.37888,0.23495 0.39264,0.21026 0.40499,0.18521 0.41628,0.15875 0.42545,0.13229 0.43286,0.10513 0.43885,0.0773 0.44274,0.0497 0.44485,0.0212 0.44556,-0.007 0.44415,-0.0356 0.44097,-0.0632 0.43603,-0.0914 0.42933,-0.11853 0.42087,-0.14605 0.41098,-0.1718 0.39935,-0.19791 0.38558,-0.22296 0.37113,-0.24659 0.35454,-0.26987 0.33655,-0.29175 0.3175,-0.31221 0.29704,-0.33232 0.27552,-0.35031 0.25259,-0.36688 0.2286,-0.38206 0.20425,-0.39617 0.17851,-0.40781 0.1524,-0.41875 0.12559,-0.42757 0.0981,-0.43427 0.0706,-0.43991 0.0423,-0.4438 0.0141,-0.4452"
       style="fill:none;stroke:#000000;stroke-width:0.176389;stroke-linecap:butt;stroke-linejoin:round;stroke-miterlimit:10;stroke-dasharray:none;stroke-opacity:1"
       id="path886" />
    <path
       d="m 19.139381,11.346714 -0.01422,-0.44521 -0.0423,-0.44344 -0.07056,-0.43991 -0.09772,-0.4346195 -0.125519,-0.42722 -0.152823,-0.41875 -0.178188,-0.40816 -0.204223,-0.39582 -0.228882,-0.38241 -0.252589,-0.36689 -0.275625,-0.3503 -0.296969,-0.33197 -0.3175,-0.31256 -0.336515,-0.29175 -0.354577,-0.26952 -0.370804,-0.24694 -0.385869,-0.22261 -0.399344,-0.1979 -0.410669,-0.17216 -0.420864,-0.1457 -0.429648,-0.11888 -0.436174,-0.091 -0.440972,-0.0635 -0.444112,-0.0353 -0.445135,-0.007 -0.445241,0.0212 -0.442736,0.0494 -0.438503,0.0776 -0.432859,0.10478 -0.4253785,0.13229 -0.416313,0.1591 -0.405024,0.18521 -0.392995,0.21026 -0.378566,0.23495 -0.362973,0.25823 -0.345722,0.28081 -0.327448,0.30233 -0.307164,0.32244 -0.286491,0.34114 -0.263878,0.35877 -0.240876,0.375 -0.216641,0.38912 -0.191276,0.40252 -0.165771,0.41345 -0.139312,0.42334 -0.111513,0.43109 -0.08431,0.4374495 -0.05652,0.44203 -0.02812,0.4445 v 0.4452 l 0.02812,0.44485 0.05652,0.44204 0.08431,0.43709 0.111513,0.43144 0.139312,0.42334 0.165771,0.41345 0.191276,0.40217 0.216641,0.38947 0.240876,0.37465 0.263878,0.35877 0.286491,0.34149 0.307164,0.32209 0.327448,0.30233 0.345722,0.28116 0.362973,0.25823 0.378566,0.23495 0.392995,0.21026 0.405024,0.18521 0.416313,0.15875 0.4253785,0.13229 0.432859,0.10513 0.438503,0.0773 0.442736,0.0497 0.445241,0.0212 0.445135,-0.007 0.444112,-0.0356 0.440972,-0.0632 0.436174,-0.0914 0.429648,-0.11853 0.420864,-0.14605 0.410669,-0.1718 0.399344,-0.19791 0.385869,-0.22296 0.370804,-0.24659 0.354577,-0.26987 0.336515,-0.29175 0.3175,-0.31221 0.296969,-0.33232 0.275625,-0.35031 0.252589,-0.36688 0.228882,-0.38206 0.204223,-0.39617 0.178188,-0.40781 0.152823,-0.41875 0.125519,-0.42757 0.09772,-0.43427 0.07056,-0.43991 0.0423,-0.4438 0.01422,-0.4452"
       style="fill:none;stroke:#000000;stroke-width:0.176389;stroke-linecap:butt;stroke-linejoin:round;stroke-miterlimit:10;stroke-dasharray:none;stroke-opacity:1"
       id="path888" />
    <path
       d="m 39.429325,11.346714 -0.02046,-0.64347 -0.06138,-0.64064 -0.1016,-0.6357095 -0.141817,-0.62794 -0.181327,-0.61772 -0.220134,-0.60501 -0.258233,-0.58984 -0.294922,-0.57186 -0.330553,-0.55245 -0.365125,-0.53022 -0.397934,-0.50624 -0.42933,-0.47978 -0.458611,-0.45155 -0.486834,-0.42157 -0.51188,-0.38982 -0.536223,-0.35631 -0.557388,-0.32208 -0.576792,-0.28611 -0.593725,-0.24835 -0.608542,-0.21061 -0.620536,-0.1718 -0.630061,-0.13159 -0.637082,-0.0917 -0.641773,-0.0508 -0.643396,-0.0102 -0.643114,0.0303 -0.639974,0.0716 -0.633907,0.11183 -0.625898,0.1517 -0.614468,0.19085 -0.601522,0.23001 -0.585258,0.26741 -0.567584,0.30409 -0.547229,0.33937 -0.524193,0.37324 -0.499569,0.40605 -0.473075,0.43674 -0.444147,0.46602 -0.413808,0.49318 -0.381706,0.51823 -0.348121,0.54152 -0.312949,0.56268 -0.276578,0.58102 -0.239219,0.59796 -0.201048,0.61172 -0.161501,0.623 -0.121814,0.63218 -0.08146,0.6385295 -0.04092,0.64241 v 0.64382 l 0.04092,0.6424 0.08146,0.63853 0.121814,0.63218 0.161501,0.62301 0.201048,0.61171 0.239219,0.59761 0.276578,0.58138 0.312949,0.56232 0.348121,0.54152 0.381706,0.51858 0.413808,0.49318 0.444147,0.46602 0.473075,0.43674 0.499569,0.4057 0.524193,0.37359 0.547229,0.33937 0.567584,0.30409 0.585258,0.26741 0.601522,0.22966 0.614468,0.1912 0.625898,0.1517 0.633907,0.11183 0.639974,0.0713 0.643114,0.0306 0.643396,-0.0102 0.641773,-0.0509 0.637082,-0.0917 0.630061,-0.13194 0.620536,-0.17145 0.608542,-0.21061 0.593725,-0.24871 0.576792,-0.28575 0.557388,-0.32208 0.536223,-0.35666 0.51188,-0.38982 0.486834,-0.42157 0.458611,-0.45156 0.42933,-0.47977 0.397934,-0.50589 0.365125,-0.53022 0.330553,-0.55245 0.294922,-0.57221 0.258233,-0.58984 0.220134,-0.60466 0.181327,-0.61772 0.141817,-0.62794 0.1016,-0.63571 0.06138,-0.64099 0.02046,-0.64347"
       style="fill:none;stroke:#000000;stroke-width:0.176389;stroke-linecap:butt;stroke-linejoin:round;stroke-miterlimit:10;stroke-dasharray:none;stroke-opacity:1"
       id="path890" />
    <path
       d="m 5.0984015,11.346714 -0.0053,-0.15875 -0.01485,-0.1584 -0.02537,-0.15698 -0.035,-0.15523 -0.0448,-0.1524 -0.05429,-0.14957 -0.06353,-0.14535 -0.07303,-0.14146 -0.08184,-0.1365295 -0.08985,-0.13088 -0.09853,-0.12488 -0.106115,-0.11853 -0.113277,-0.11148 -0.119874,-0.10407 -0.126648,-0.0963 -0.132291,-0.0882 -0.137689,-0.0794 -0.142487,-0.0706 -0.146756,-0.0617 -0.150354,-0.0519 -0.15307,-0.0423 -0.155857,-0.0325 -0.156986,-0.0226 -0.15875,-0.0127 -0.15875,-0.002 -0.159139,0.007 -0.157656,0.0176 -0.156669,0.0275 -0.154481,0.0374 -0.152153,0.0473 -0.148131,0.0568 -0.144957,0.066 -0.140017,0.0751 -0.135185,0.084 -0.129399,0.0921 -0.123472,0.10019 -0.116875,0.1083 -0.109679,0.11501 -0.10227,0.1217 -0.09423,0.12806 -0.08573,0.1337095 -0.07758,0.13899 -0.06809,0.14323 -0.05927,0.14781 -0.04974,0.15099 -0.03983,0.15416 -0.03002,0.15593 -0.02014,0.15769 -0.0102,0.15875 v 0.15911 l 0.0102,0.15839 0.02014,0.15805 0.03002,0.15593 0.03983,0.15381 0.04974,0.15099 0.05927,0.14781 0.06809,0.14358 0.07758,0.139 0.08573,0.1337 0.09423,0.12806 0.10227,0.12171 0.109679,0.115 0.116875,0.10795 0.123472,0.10019 0.129399,0.0924 0.135185,0.0836 0.140017,0.0751 0.144957,0.066 0.148131,0.0568 0.152153,0.0473 0.154481,0.0374 0.156669,0.0275 0.157656,0.0176 0.159139,0.008 0.15875,-0.002 0.15875,-0.0127 0.156986,-0.0226 0.155857,-0.0328 0.15307,-0.0423 0.150354,-0.0519 0.146756,-0.0614 0.142487,-0.0706 0.137689,-0.0797 0.132291,-0.0878 0.126648,-0.0963 0.119874,-0.10407 0.113277,-0.11147 0.106115,-0.11854 0.09853,-0.12488 0.08985,-0.13123 0.08184,-0.13653 0.07303,-0.14111 0.06353,-0.1457 0.05429,-0.14958 0.0448,-0.1524 0.035,-0.15522 0.02537,-0.15663 0.01485,-0.1584 0.0053,-0.1591"
       style="fill:none;stroke:#000000;stroke-width:0.176389;stroke-linecap:butt;stroke-linejoin:round;stroke-miterlimit:10;stroke-dasharray:none;stroke-opacity:1"
       id="path892" />
  </g>
</svg>
