<?xml version="1.0" encoding="UTF-8" standalone="no"?>
<!-- Created with Inkscape (http://www.inkscape.org/) -->

<svg
   version="1.1"
   id="svg2084"
   xml:space="preserve"
   width="383.168"
   height="191.90401"
   viewBox="0 0 383.168 191.90401"
   sodipodi:docname="7splits_alternative.svg"
   inkscape:version="1.1.1 (3bf5ae0d25, 2021-09-20, custom)"
   xmlns:inkscape="http://www.inkscape.org/namespaces/inkscape"
   xmlns:sodipodi="http://sodipodi.sourceforge.net/DTD/sodipodi-0.dtd"
   xmlns="http://www.w3.org/2000/svg"
   xmlns:svg="http://www.w3.org/2000/svg"><defs
     id="defs2088"><clipPath
       clipPathUnits="userSpaceOnUse"
       id="clipPath2104"><path
         d="M 950,2570 H 5150 V 5340 H 950 Z"
         id="path2102" /></clipPath></defs><sodipodi:namedview
     id="namedview2086"
     pagecolor="#ffffff"
     bordercolor="#666666"
     borderopacity="1.0"
     inkscape:pageshadow="2"
     inkscape:pageopacity="0.0"
     inkscape:pagecheckerboard="0"
     showgrid="false"
     width="383.168px"
     inkscape:zoom="3.1477273"
     inkscape:cx="301.01083"
     inkscape:cy="170.12274"
     inkscape:window-width="3840"
     inkscape:window-height="2160"
     inkscape:window-x="3840"
     inkscape:window-y="0"
     inkscape:window-maximized="1"
     inkscape:current-layer="g2090" /><g
     id="g2090"
     inkscape:groupmode="layer"
     inkscape:label="ink_ext_XXXXXX"
     transform="matrix(1.3333333,0,0,-1.3333333,0,1056)"><path
       d="m 287.126,720.03603 -0.289,4.549 -0.865,4.53 -1.438,4.495 -2.006,4.439 -2.564,4.367 -3.114,4.277 -3.649,4.169 -4.171,4.045 -4.676,3.905 -5.162,3.749 -5.626,3.577 -6.07,3.392 -6.487,3.193 -6.879,2.98 -7.244,2.757 -7.578,2.521 -7.883,2.276 -8.156,2.021 -8.396,1.758 -8.602,1.489 -8.773,1.213 -8.91,0.932 -9.01,0.647 -9.073,0.361 -9.102,0.072 -9.092,-0.217 -9.047,-0.504 -8.964,-0.791 -8.846,-1.072 -8.692,-1.352 -8.503,-1.624 -8.28,-1.89 -8.023,-2.15 -7.735,-2.4 -7.415,-2.639 -7.064,-2.871 -6.687,-3.087 -6.282,-3.294 -5.851,-3.487 -5.397,-3.665 -4.921,-3.829 -4.425,-3.977 -3.913,-4.109 -3.383,-4.225 -2.84,-4.325 -2.286,-4.405 -1.723,-4.469 -1.152,-4.515 -0.578,-4.542 v -4.551 l 0.578,-4.542 1.152,-4.515 1.723,-4.469 2.286,-4.405 2.84,-4.324 3.383,-4.225 3.913,-4.11 4.425,-3.977 4.921,-3.829 5.397,-3.665 5.851,-3.486 6.282,-3.294 6.687,-3.088 7.064,-2.87 7.415,-2.64 7.735,-2.399 8.023,-2.15 8.28,-1.89 8.503,-1.625 8.692,-1.351 8.846,-1.073 8.964,-0.791 9.047,-0.504 9.092,-0.216 9.102,0.072 9.073,0.36 9.01,0.648 8.91,0.932 8.773,1.213 8.602,1.488 8.396,1.759 8.156,2.021 7.883,2.275 7.578,2.521 7.244,2.757 6.879,2.981 6.487,3.192 6.07,3.392 5.626,3.577 5.162,3.749 4.676,3.905 4.171,4.045 3.649,4.17 3.114,4.276 2.564,4.368 2.006,4.439 1.438,4.494 0.865,4.531 0.289,4.549"
       style="fill:none;stroke:#000000;stroke-width:0.5;stroke-linecap:butt;stroke-linejoin:round;stroke-miterlimit:10;stroke-dasharray:none;stroke-opacity:1"
       id="path2160" /><path
       d="m 215.402,720.03603 -0.144,4.549 -0.432,4.53 -0.72,4.495 -1.003,4.439 -1.282,4.367 -1.557,4.277 -1.824,4.169 -2.086,4.045 -2.338,3.905 -2.58,3.749 -2.814,3.577 -3.034,3.392 -3.244,3.193 -3.44,2.98 -3.621,2.757 -3.79,2.521 -3.941,2.276 -4.078,2.021 -4.198,1.758 -4.301,1.489 -4.387,1.213 -4.454,0.932 -4.505,0.647 -4.537,0.361 -4.551,0.072 -4.546,-0.217 -4.523,-0.504 -4.482,-0.791 -4.423,-1.072 -4.346,-1.352 -4.252,-1.624 -4.14,-1.89 -4.012,-2.15 -3.867,-2.4 -3.707,-2.639 -3.533,-2.871 -3.343,-3.087 -3.141,-3.294 -2.925,-3.487 -2.699,-3.665 -2.461,-3.829 -2.212,-3.977 -1.957,-4.109 -1.691,-4.225 -1.42,-4.325 -1.143,-4.405 -0.861,-4.469 -0.576,-4.515 -0.289,-4.542 v -4.551 l 0.289,-4.542 0.576,-4.515 0.861,-4.469 1.143,-4.405 1.42,-4.324 1.691,-4.225 1.957,-4.11 2.212,-3.977 2.461,-3.829 2.699,-3.665 2.925,-3.486 3.141,-3.294 3.343,-3.088 3.533,-2.87 3.707,-2.64 3.867,-2.399 4.012,-2.15 4.14,-1.89 4.252,-1.625 4.346,-1.351 4.423,-1.073 4.482,-0.791 4.523,-0.504 4.546,-0.216 4.551,0.072 4.537,0.36 4.505,0.648 4.454,0.932 4.387,1.213 4.301,1.488 4.198,1.759 4.078,2.021 3.941,2.275 3.79,2.521 3.621,2.757 3.44,2.981 3.244,3.192 3.034,3.392 2.814,3.577 2.58,3.749 2.338,3.905 2.086,4.045 1.824,4.17 1.557,4.276 1.282,4.368 1.003,4.439 0.72,4.494 0.432,4.531 0.144,4.549"
       style="fill:none;stroke:#000000;stroke-width:0.5;stroke-linecap:butt;stroke-linejoin:round;stroke-miterlimit:10;stroke-dasharray:none;stroke-opacity:1"
       id="path2162" /><path
       d="m 287.126,720.03603 -0.072,2.274 -0.217,2.265 -0.359,2.247 -0.502,2.22 -0.641,2.184 -0.778,2.138 -0.913,2.085 -1.042,2.022 -1.169,1.953 -1.291,1.875 -1.406,1.788 -1.517,1.696 -1.622,1.597 -1.72,1.49 -1.811,1.378 -1.895,1.261 -1.97,1.137 -2.04,1.01 -2.098,0.88 -2.151,0.744 -2.193,0.606 -2.227,0.467 -2.253,0.323 -2.268,0.181 -2.276,0.036 -2.273,-0.109 -2.262,-0.252 -2.241,-0.395 -2.211,-0.536 -2.173,-0.676 -2.126,-0.812 -2.07,-0.945 -2.006,-1.075 -1.933,-1.2 -1.854,-1.32 -1.766,-1.435 -1.672,-1.544 -1.571,-1.647 -1.462,-1.743 -1.35,-1.833 -1.23,-1.914 -1.106,-1.989 -0.978,-2.054 -0.846,-2.113 -0.71,-2.162 -0.571,-2.203 -0.431,-2.234 -0.288,-2.257 -0.145,-2.271 v -2.276 l 0.145,-2.271 0.288,-2.258 0.431,-2.234 0.571,-2.203 0.71,-2.162 0.846,-2.113 0.978,-2.054 1.106,-1.989 1.23,-1.914 1.35,-1.833 1.462,-1.743 1.571,-1.647 1.672,-1.544 1.766,-1.435 1.854,-1.32 1.933,-1.199 2.006,-1.075 2.07,-0.945 2.126,-0.813 2.173,-0.675 2.211,-0.537 2.241,-0.395 2.262,-0.252 2.273,-0.109 2.276,0.037 2.268,0.18 2.253,0.324 2.227,0.466 2.193,0.606 2.151,0.744 2.098,0.88 2.04,1.011 1.97,1.137 1.895,1.26 1.811,1.379 1.72,1.49 1.622,1.596 1.517,1.696 1.406,1.789 1.291,1.874 1.169,1.953 1.042,2.023 0.913,2.084 0.778,2.138 0.641,2.184 0.502,2.22 0.359,2.247 0.217,2.265 0.072,2.275"
       style="fill:none;stroke:#000000;stroke-width:0.5;stroke-linecap:butt;stroke-linejoin:round;stroke-miterlimit:10;stroke-dasharray:none;stroke-opacity:1"
       id="path2164" /><path
       d="m 71.956,720.03603 -0.072,2.274 -0.217,2.265 -0.36,2.247 -0.501,2.22 -0.641,2.184 -0.778,2.138 -0.913,2.085 -1.043,2.022 -1.168,1.953 -1.291,1.875 -1.406,1.788 -1.518,1.696 -1.621,1.597 -1.72,1.49 -1.811,1.378 -1.895,1.261 -1.97,1.137 -2.039,1.01 -2.1,0.88 -2.15,0.744 -2.193,0.606 -2.228,0.467 -2.252,0.323 -2.269,0.181 -2.275,0.036 -2.273,-0.109 -2.261,-0.252 -2.242,-0.395 -2.211,-0.536 -2.174,-0.676 -2.125,-0.812 -2.07,-0.945 -2.006,-1.075 -1.934,-1.2 -1.853,-1.32 -1.766,-1.435 -1.672,-1.544 -1.57,-1.647 -1.463,-1.743 -1.349,-1.833 -1.231,-1.914 -1.106,-1.989 -0.978,-2.054 -0.846,-2.113 -0.71,-2.162 -0.571,-2.203 -0.431,-2.234 -0.288,-2.257 -0.145,-2.271 v -2.276 l 0.145,-2.271 0.288,-2.258 0.431,-2.234 0.571,-2.203 0.71,-2.162 0.846,-2.113 0.978,-2.054 1.106,-1.989 1.231,-1.914 1.349,-1.833 1.463,-1.743 1.57,-1.647 1.672,-1.544 1.766,-1.435 1.853,-1.32 1.934,-1.199 2.006,-1.075 2.07,-0.945 2.125,-0.813 2.174,-0.675 2.211,-0.537 2.242,-0.395 2.261,-0.252 2.273,-0.109 2.275,0.037 2.269,0.18 2.252,0.324 2.228,0.466 2.193,0.606 2.15,0.744 2.1,0.88 2.039,1.011 1.97,1.137 1.895,1.26 1.811,1.379 1.72,1.49 1.621,1.596 1.518,1.696 1.406,1.789 1.291,1.874 1.168,1.953 1.043,2.023 0.913,2.084 0.778,2.138 0.641,2.184 0.501,2.22 0.36,2.247 0.217,2.265 0.072,2.275"
       style="fill:none;stroke:#000000;stroke-width:0.5;stroke-linecap:butt;stroke-linejoin:round;stroke-miterlimit:10;stroke-dasharray:none;stroke-opacity:1"
       id="path2166" /><path
       d="m 237.594,762.90603 -0.034,1.056 -0.1,1.051 -0.167,1.043 -0.233,1.03 -0.297,1.013 -0.361,0.993 -0.424,0.967 -0.484,0.939 -0.543,0.906 -0.598,0.87 -0.653,0.83 -0.705,0.787 -0.752,0.741 -0.798,0.692 -0.841,0.639 -0.879,0.586 -0.915,0.527 -0.946,0.47 -0.974,0.407 -0.998,0.346 -1.018,0.281 -1.034,0.217 -1.045,0.15 -1.053,0.083 -1.056,0.018 -1.055,-0.051 -1.05,-0.117 -1.04,-0.184 -1.026,-0.249 -1.008,-0.313 -0.987,-0.377 -0.961,-0.438 -0.931,-0.499 -0.897,-0.557 -0.86,-0.613 -0.82,-0.666 -0.776,-0.716 -0.729,-0.765 -0.678,-0.809 -0.626,-0.85 -0.572,-0.889 -0.513,-0.923 -0.454,-0.953 -0.393,-0.981 -0.329,-1.003 -0.265,-1.023 -0.2,-1.036 -0.134,-1.048 -0.067,-1.054 v -1.056 l 0.067,-1.054 0.134,-1.048 0.2,-1.037 0.265,-1.022 0.329,-1.003 0.393,-0.981 0.454,-0.953 0.513,-0.923 0.572,-0.889 0.626,-0.85 0.678,-0.809 0.729,-0.765 0.776,-0.716 0.82,-0.666 0.86,-0.613 0.897,-0.557 0.931,-0.499 0.961,-0.438 0.987,-0.377 1.008,-0.314 1.026,-0.249 1.04,-0.183 1.05,-0.117 1.055,-0.051 1.056,0.017 1.053,0.084 1.045,0.15 1.034,0.217 1.018,0.281 0.998,0.346 0.974,0.407 0.946,0.47 0.915,0.527 0.879,0.586 0.841,0.639 0.798,0.692 0.752,0.741 0.705,0.787 0.653,0.83 0.598,0.87 0.543,0.906 0.484,0.939 0.424,0.967 0.361,0.993 0.297,1.013 0.233,1.03 0.167,1.043 0.1,1.051 0.034,1.056"
       style="fill:none;stroke:#000000;stroke-width:0.5;stroke-linecap:butt;stroke-linejoin:round;stroke-miterlimit:10;stroke-dasharray:none;stroke-opacity:1"
       id="path2168" /><path
       d="m 83.051,762.90603 -0.033,1.056 -0.101,1.051 -0.167,1.043 -0.232,1.03 -0.297,1.013 -0.362,0.993 -0.423,0.967 -0.485,0.939 -0.542,0.906 -0.599,0.87 -0.652,0.83 -0.705,0.787 -0.752,0.741 -0.799,0.692 -0.84,0.639 -0.88,0.586 -0.914,0.527 -0.946,0.47 -0.975,0.407 -0.998,0.346 -1.017,0.281 -1.034,0.217 -1.045,0.15 -1.053,0.083 -1.056,0.018 -1.055,-0.051 -1.05,-0.117 -1.04,-0.184 -1.026,-0.249 -1.009,-0.313 -0.986,-0.377 -0.961,-0.438 -0.931,-0.499 -0.897,-0.557 -0.861,-0.613 -0.819,-0.666 -0.776,-0.716 -0.729,-0.765 -0.679,-0.809 -0.626,-0.85 -0.571,-0.889 -0.513,-0.923 -0.455,-0.953 -0.392,-0.981 -0.33,-1.003 -0.265,-1.023 -0.2,-1.036 -0.133,-1.048 -0.067,-1.054 v -1.056 l 0.067,-1.054 0.133,-1.048 0.2,-1.037 0.265,-1.022 0.33,-1.003 0.392,-0.981 0.455,-0.953 0.513,-0.923 0.571,-0.889 0.626,-0.85 0.679,-0.809 0.729,-0.765 0.776,-0.716 0.819,-0.666 0.861,-0.613 0.897,-0.557 0.931,-0.499 0.961,-0.438 0.986,-0.377 1.009,-0.314 1.026,-0.249 1.04,-0.183 1.05,-0.117 1.055,-0.051 1.056,0.017 1.053,0.084 1.045,0.15 1.034,0.217 1.017,0.281 0.998,0.346 0.975,0.407 0.946,0.47 0.914,0.527 0.88,0.586 0.84,0.639 0.799,0.692 0.752,0.741 0.705,0.787 0.652,0.83 0.599,0.87 0.542,0.906 0.485,0.939 0.423,0.967 0.362,0.993 0.297,1.013 0.232,1.03 0.167,1.043 0.101,1.051 0.033,1.056"
       style="fill:none;stroke:#000000;stroke-width:0.5;stroke-linecap:butt;stroke-linejoin:round;stroke-miterlimit:10;stroke-dasharray:none;stroke-opacity:1"
       id="path2170" /><path
       d="m 237.594,677.16503 -0.034,1.056 -0.1,1.051 -0.167,1.043 -0.233,1.03 -0.297,1.014 -0.361,0.992 -0.424,0.968 -0.484,0.939 -0.543,0.906 -0.598,0.869 -0.653,0.83 -0.705,0.788 -0.752,0.741 -0.798,0.691 -0.841,0.64 -0.879,0.585 -0.915,0.528 -0.946,0.469 -0.974,0.408 -0.998,0.345 -1.018,0.282 -1.034,0.216 -1.045,0.15 -1.053,0.084 -1.056,0.017 -1.055,-0.05 -1.05,-0.118 -1.04,-0.183 -1.026,-0.249 -1.008,-0.314 -0.987,-0.376 -0.961,-0.439 -0.931,-0.499 -0.897,-0.557 -0.86,-0.612 -0.82,-0.666 -0.776,-0.717 -0.729,-0.764 -0.678,-0.809 -0.626,-0.851 -0.572,-0.888 -0.513,-0.923 -0.454,-0.954 -0.393,-0.98 -0.329,-1.004 -0.265,-1.022 -0.2,-1.037 -0.134,-1.048 -0.067,-1.053 v -1.056 l 0.067,-1.055 0.134,-1.047 0.2,-1.037 0.265,-1.023 0.329,-1.003 0.393,-0.981 0.454,-0.953 0.513,-0.923 0.572,-0.888 0.626,-0.851 0.678,-0.809 0.729,-0.764 0.776,-0.717 0.82,-0.666 0.86,-0.612 0.897,-0.557 0.931,-0.499 0.961,-0.439 0.987,-0.377 1.008,-0.313 1.026,-0.249 1.04,-0.184 1.05,-0.117 1.055,-0.05 1.056,0.017 1.053,0.084 1.045,0.15 1.034,0.216 1.018,0.282 0.998,0.345 0.974,0.408 0.946,0.469 0.915,0.528 0.879,0.585 0.841,0.64 0.798,0.691 0.752,0.741 0.705,0.787 0.653,0.831 0.598,0.869 0.543,0.907 0.484,0.938 0.424,0.968 0.361,0.992 0.297,1.014 0.233,1.03 0.167,1.042 0.1,1.052 0.034,1.055"
       style="fill:none;stroke:#000000;stroke-width:0.5;stroke-linecap:butt;stroke-linejoin:round;stroke-miterlimit:10;stroke-dasharray:none;stroke-opacity:1"
       id="path2172" /><path
       d="m 83.051,677.16503 -0.033,1.056 -0.101,1.051 -0.167,1.043 -0.232,1.03 -0.297,1.014 -0.362,0.992 -0.423,0.968 -0.485,0.939 -0.542,0.906 -0.599,0.869 -0.652,0.83 -0.705,0.788 -0.752,0.741 -0.799,0.691 -0.84,0.64 -0.88,0.585 -0.914,0.528 -0.946,0.469 -0.975,0.408 -0.998,0.345 -1.017,0.282 -1.034,0.216 -1.045,0.15 -1.053,0.084 -1.056,0.017 -1.055,-0.05 -1.05,-0.118 -1.04,-0.183 -1.026,-0.249 -1.009,-0.314 -0.986,-0.376 -0.961,-0.439 -0.931,-0.499 -0.897,-0.557 -0.861,-0.612 -0.819,-0.666 -0.776,-0.717 -0.729,-0.764 -0.679,-0.809 -0.626,-0.851 -0.571,-0.888 -0.513,-0.923 -0.455,-0.954 -0.392,-0.98 -0.33,-1.004 -0.265,-1.022 -0.2,-1.037 -0.133,-1.048 -0.067,-1.053 v -1.056 l 0.067,-1.055 0.133,-1.047 0.2,-1.037 0.265,-1.023 0.33,-1.003 0.392,-0.981 0.455,-0.953 0.513,-0.923 0.571,-0.888 0.626,-0.851 0.679,-0.809 0.729,-0.764 0.776,-0.717 0.819,-0.666 0.861,-0.612 0.897,-0.557 0.931,-0.499 0.961,-0.439 0.986,-0.377 1.009,-0.313 1.026,-0.249 1.04,-0.184 1.05,-0.117 1.055,-0.05 1.056,0.017 1.053,0.084 1.045,0.15 1.034,0.216 1.017,0.282 0.998,0.345 0.975,0.408 0.946,0.469 0.914,0.528 0.88,0.585 0.84,0.64 0.799,0.691 0.752,0.741 0.705,0.787 0.652,0.831 0.599,0.869 0.542,0.907 0.485,0.938 0.423,0.968 0.362,0.992 0.297,1.014 0.232,1.03 0.167,1.042 0.101,1.052 0.033,1.055"
       style="fill:none;stroke:#000000;stroke-width:0.5;stroke-linecap:butt;stroke-linejoin:round;stroke-miterlimit:10;stroke-dasharray:none;stroke-opacity:1"
       id="path2174" /></g></svg>
