<?xml version="1.0" encoding="UTF-8" standalone="no"?>
<!-- Created with Inkscape (http://www.inkscape.org/) -->

<svg
   version="1.1"
   id="svg2084"
   xml:space="preserve"
   width="141.297"
   height="100"
   viewBox="0 0 141.297 100.00001"
   sodipodi:docname="2splits.svg"
   inkscape:version="1.1.1 (3bf5ae0d25, 2021-09-20, custom)"
   xmlns:inkscape="http://www.inkscape.org/namespaces/inkscape"
   xmlns:sodipodi="http://sodipodi.sourceforge.net/DTD/sodipodi-0.dtd"
   xmlns="http://www.w3.org/2000/svg"
   xmlns:svg="http://www.w3.org/2000/svg"><defs
     id="defs2088"><clipPath
       clipPathUnits="userSpaceOnUse"
       id="clipPath2104"><path
         d="M 950,2570 H 5150 V 5340 H 950 Z"
         id="path2102" /></clipPath><clipPath
       clipPathUnits="userSpaceOnUse"
       id="clipPath3065"><path
         d="M 950,2570 H 5150 V 5340 H 950 Z"
         id="path3063" /></clipPath><clipPath
       clipPathUnits="userSpaceOnUse"
       id="clipPath3899"><path
         d="M 950,2380 H 5150 V 5530 H 950 Z"
         id="path3897" /></clipPath><clipPath
       clipPathUnits="userSpaceOnUse"
       id="clipPath4922"><path
         d="M 950,2570 H 5150 V 5340 H 950 Z"
         id="path4920" /></clipPath><clipPath
       clipPathUnits="userSpaceOnUse"
       id="clipPath5804"><path
         d="M 950,2570 H 5150 V 5340 H 950 Z"
         id="path5802" /></clipPath></defs><sodipodi:namedview
     id="namedview2086"
     pagecolor="#ffffff"
     bordercolor="#666666"
     borderopacity="1.0"
     inkscape:pageshadow="2"
     inkscape:pageopacity="0.0"
     inkscape:pagecheckerboard="0"
     showgrid="false"
     width="383.168px"
     inkscape:zoom="3.1477273"
     inkscape:cx="247.95668"
     inkscape:cy="192.6787"
     inkscape:window-width="3840"
     inkscape:window-height="2160"
     inkscape:window-x="3840"
     inkscape:window-y="0"
     inkscape:window-maximized="1"
     inkscape:current-layer="g2090" /><g
     id="g2090"
     inkscape:groupmode="layer"
     inkscape:label="ink_ext_XXXXXX"
     transform="matrix(1.3333333,0,0,-1.3333333,0,1056)"><path
       d="m 105.86042,754.49999 -0.10653,2.37132 -0.31886,2.36211 -0.53007,2.34296 -0.73945,2.31455 -0.94551,2.27659 -1.14751,2.22978 -1.34546,2.17375 -1.537506,2.10887 -1.723664,2.03589 -1.902812,1.95404 -2.074588,1.86522 -2.23715,1.76826 -2.3916,1.66432 -2.536101,1.5541 -2.669908,1.43687 -2.793765,1.3145 -2.906193,1.18622 -3.006457,1.05351 -3.094927,0.91675 -3.171231,0.77631 -3.234264,0.63219 -3.284397,0.48584 -3.321627,0.33765 -3.34485,0.188 -3.355171,0.038 -3.351855,-0.11317 -3.334897,-0.26283 -3.30467,-0.41211 -3.260806,-0.55957 -3.204406,-0.70443 -3.134737,-0.84671 -3.052166,-0.9857 -2.957801,-1.12059 -2.851269,-1.2511 -2.733311,-1.37606 -2.604663,-1.49622 -2.464956,-1.61013 -2.315297,-1.71703 -2.157159,-1.81765 -1.9894378,-1.91093 -1.8143435,-1.99607 -1.6315084,-2.07349 -1.442038,-2.14241 -1.2470387,-2.2025 -1.047247,-2.25447 -0.8426634,-2.2965 -0.63513078,-2.33004 -0.42464926,-2.35364 -0.21306187,-2.36801 v -2.37279 l 0.21306187,-2.36802 0.42464926,-2.35326 0.63513078,-2.33004 0.8426634,-2.29687 1.047247,-2.2541 1.2470387,-2.20287 1.442038,-2.14242 1.6315084,-2.07348 1.8143435,-1.99607 1.9894378,-1.91055 2.157159,-1.81767 2.315297,-1.71739 2.464956,-1.60976 2.604663,-1.49623 2.733311,-1.37642 2.851269,-1.2511 2.957801,-1.1206 3.052166,-0.98532 3.134737,-0.84708 3.204406,-0.70444 3.260806,-0.55955 3.30467,-0.41175 3.334897,-0.2632 3.351855,-0.1128 3.355171,0.0376 3.34485,0.188 3.321627,0.33766 3.284397,0.48621 3.234264,0.63217 3.171231,0.77595 3.094927,0.91676 3.006457,1.05351 2.906193,1.18658 2.793765,1.31413 2.669908,1.43688 2.536101,1.55409 2.3916,1.66432 2.23715,1.76827 2.074588,1.86521 1.902812,1.95442 1.723664,2.03589 1.537506,2.10887 1.34546,2.17374 1.14751,2.22977 0.94551,2.2766 0.73945,2.31419 0.53007,2.34331 0.31886,2.36174 0.10653,2.3717"
       style="fill:none;stroke:#000000;stroke-width:0.224878;stroke-linecap:butt;stroke-linejoin:round;stroke-miterlimit:10;stroke-dasharray:none;stroke-opacity:1"
       id="path5854" /><path
       d="m 105.86042,754.49999 -0.0535,1.67685 -0.15924,1.67022 -0.26541,1.65657 -0.36936,1.63666 -0.47293,1.60976 -0.57357,1.57659 -0.67274,1.53714 -0.76893,1.49107 -0.86184,1.43982 -0.9514,1.38195 -1.036923,1.31856 -1.11876,1.25035 -1.1958,1.177 -1.26805,1.09886 -1.335138,1.01628 -1.396698,0.92929 -1.453097,0.8386 -1.503229,0.74499 -1.547832,0.6484 -1.585431,0.54887 -1.617132,0.44714 -1.642198,0.34355 -1.660629,0.23849 -1.672426,0.13308 -1.677585,0.0269 -1.676112,-0.08 -1.667265,-0.18616 -1.652519,-0.2912 -1.630034,-0.39554 -1.602388,-0.498 -1.567368,-0.599 -1.526083,-0.69707 -1.4789,-0.79216 -1.425819,-0.88468 -1.366471,-0.97316 -1.302332,-1.05793 -1.232662,-1.1383 -1.157464,-1.21424 -1.07858,-1.28537 -0.994903,-1.35099 -0.906803,-1.41143 -0.816123,-1.466 -0.721019,-1.51503 -0.623335,-1.55779 -0.523439,-1.5939 -0.421701,-1.62414 -0.31738,-1.64735 -0.212325,-1.66432 -0.106532,-1.67464 v -1.67759 l 0.106532,-1.67463 0.212325,-1.66432 0.31738,-1.64736 0.421701,-1.62376 0.523439,-1.59429 0.623335,-1.55741 0.721019,-1.51503 0.816123,-1.46599 0.906803,-1.41145 0.994903,-1.35099 1.07858,-1.28537 1.157464,-1.21423 1.232662,-1.13867 1.302332,-1.05793 1.366471,-0.97316 1.425819,-0.88431 1.4789,-0.79253 1.526083,-0.69706 1.567368,-0.59901 1.602388,-0.49764 1.630034,-0.3959 1.652519,-0.2912 1.667265,-0.18616 1.676112,-0.0797 1.677585,0.0266 1.672426,0.13308 1.660629,0.23886 1.642198,0.34355 1.617132,0.44714 1.585431,0.54851 1.547832,0.64839 1.503229,0.74498 1.453097,0.83862 1.396698,0.92965 1.335138,1.01628 1.26805,1.09849 1.1958,1.177 1.11876,1.25036 1.036923,1.31891 0.9514,1.38195 0.86184,1.43946 0.76893,1.49107 0.67274,1.53715 0.57357,1.57657 0.47293,1.60976 0.36936,1.63668 0.26541,1.65657 0.15924,1.67058 0.0535,1.67685"
       style="fill:none;stroke:#000000;stroke-width:0.224878;stroke-linecap:butt;stroke-linejoin:round;stroke-miterlimit:10;stroke-dasharray:none;stroke-opacity:1"
       id="path5856" /><path
       d="m 52.979796,754.49999 -0.05308,1.67685 -0.159611,1.67022 -0.265038,1.65657 -0.369725,1.63666 -0.47257,1.60976 -0.573939,1.57659 -0.67273,1.53714 -0.76894,1.49107 -0.861463,1.43982 -0.951775,1.38195 -1.036925,1.31856 -1.11876,1.25035 -1.195801,1.177 -1.268049,1.09886 -1.335139,1.01628 -1.396698,0.92929 -1.453096,0.8386 -1.50323,0.74499 -1.547462,0.6484 -1.585431,0.54887 -1.617501,0.44714 -1.642199,0.34355 -1.660629,0.23849 -1.672424,0.13308 -1.677586,0.0269 -1.675743,-0.08 -1.667633,-0.18616 -1.652152,-0.2912 -1.63077,-0.39554 -1.602019,-0.498 -1.567369,-0.599 -1.526084,-0.69707 -1.478899,-0.79216 -1.425451,-0.88468 -1.36684,-0.97316 -1.3023306,-1.05793 -1.2322938,-1.1383 -1.1578327,-1.21424 -1.078211,-1.28537 -0.9949031,-1.35099 -0.9071717,-1.41143 -0.8157543,-1.466 -0.7210191,-1.51503 -0.6237036,-1.55779 -0.5234392,-1.5939 -0.42133163,-1.62414 -0.31774971,-1.64735 -0.21232463,-1.66432 -0.10653093,-1.67464 v -1.67759 l 0.10653093,-1.67463 0.21232463,-1.66432 0.31774971,-1.64736 0.42133163,-1.62376 0.5234392,-1.59429 0.6237036,-1.55741 0.7210191,-1.51503 0.8157543,-1.46599 0.9071717,-1.41145 0.9949031,-1.35099 1.078211,-1.28537 1.1578327,-1.21423 1.2322938,-1.13867 1.3023306,-1.05793 1.36684,-0.97316 1.425451,-0.88431 1.478899,-0.79253 1.526084,-0.69706 1.567369,-0.59901 1.602019,-0.49764 1.63077,-0.3959 1.652152,-0.2912 1.667633,-0.18616 1.675743,-0.0797 1.677586,0.0266 1.672424,0.13308 1.660629,0.23886 1.642199,0.34355 1.617501,0.44714 1.585431,0.54851 1.547462,0.64839 1.50323,0.74498 1.453096,0.83862 1.396698,0.92965 1.335139,1.01628 1.268049,1.09849 1.195801,1.177 1.11876,1.25036 1.036925,1.31891 0.951775,1.38195 0.861463,1.43946 0.76894,1.49107 0.67273,1.53715 0.573939,1.57657 0.47257,1.60976 0.369725,1.63668 0.265038,1.65657 0.159611,1.67058 0.05308,1.67685"
       style="fill:none;stroke:#000000;stroke-width:0.224878;stroke-linecap:butt;stroke-linejoin:round;stroke-miterlimit:10;stroke-dasharray:none;stroke-opacity:1"
       id="path5858" /></g></svg>
