<?xml version="1.0" encoding="UTF-8" standalone="no"?>
<!-- Created with Inkscape (http://www.inkscape.org/) -->

<svg
   version="1.1"
   id="svg2084"
   xml:space="preserve"
   width="299.41699"
   height="100"
   viewBox="0 0 299.41699 100"
   sodipodi:docname="3splits_alternative.svg"
   inkscape:version="1.1.1 (3bf5ae0d25, 2021-09-20, custom)"
   xmlns:inkscape="http://www.inkscape.org/namespaces/inkscape"
   xmlns:sodipodi="http://sodipodi.sourceforge.net/DTD/sodipodi-0.dtd"
   xmlns="http://www.w3.org/2000/svg"
   xmlns:svg="http://www.w3.org/2000/svg"><defs
     id="defs2088"><clipPath
       clipPathUnits="userSpaceOnUse"
       id="clipPath2104"><path
         d="M 950,2570 H 5150 V 5340 H 950 Z"
         id="path2102" /></clipPath><clipPath
       clipPathUnits="userSpaceOnUse"
       id="clipPath3065"><path
         d="M 950,2570 H 5150 V 5340 H 950 Z"
         id="path3063" /></clipPath><clipPath
       clipPathUnits="userSpaceOnUse"
       id="clipPath3899"><path
         d="M 950,2380 H 5150 V 5530 H 950 Z"
         id="path3897" /></clipPath><clipPath
       clipPathUnits="userSpaceOnUse"
       id="clipPath4922"><path
         d="M 950,2570 H 5150 V 5340 H 950 Z"
         id="path4920" /></clipPath></defs><sodipodi:namedview
     id="namedview2086"
     pagecolor="#ffffff"
     bordercolor="#666666"
     borderopacity="1.0"
     inkscape:pageshadow="2"
     inkscape:pageopacity="0.0"
     inkscape:pagecheckerboard="0"
     showgrid="false"
     width="299.417px"
     inkscape:zoom="3.1477273"
     inkscape:cx="247.95668"
     inkscape:cy="192.6787"
     inkscape:window-width="3840"
     inkscape:window-height="2160"
     inkscape:window-x="3840"
     inkscape:window-y="0"
     inkscape:window-maximized="1"
     inkscape:current-layer="g2090" /><g
     id="g2090"
     inkscape:groupmode="layer"
     inkscape:label="ink_ext_XXXXXX"
     transform="matrix(1.3333333,0,0,-1.3333333,0,1056)"><path
       d="m 224.53279,754.41723 -0.226,2.37182 -0.67642,2.36163 -1.12452,2.34289 -1.5687,2.31472 -2.00584,2.27641 -2.43436,2.22948 -2.85352,2.17396 -3.26173,2.10906 -3.65744,2.03556 -4.0359,1.95422 -4.40032,1.86585 -4.74676,1.76811 -5.07284,1.6641 -5.37939,1.55383 -5.66482,1.43732 -5.92679,1.31455 -6.16452,1.18629 -6.378,1.05336 -6.56569,0.9165 -6.72678,0.77654 -6.86127,0.63263 -6.96686,0.48563 -7.04584,0.33782 -7.09588,0.18769 -7.11778,0.0376 -7.11074,-0.11261 -7.073986,-0.26353 -7.009862,-0.41134 -6.917587,-0.55991 -6.79794,-0.70458 -6.64936,-0.84691 -6.474974,-0.98533 -6.274781,-1.1206 -6.048783,-1.2512 -5.797759,-1.37632 -5.524843,-1.49597 -5.229245,-1.61015 -4.912534,-1.71727 -4.575491,-1.81737 -4.220464,-1.91044 -3.849011,-1.99644 -3.460358,-2.07386 -3.0591903,-2.14192 -2.6462935,-2.20289 -2.2208847,-2.25452 -1.7876558,-2.29673 -1.3473888,-2.32959 -0.90086588,-2.35382 -0.45121494,-2.36791 V 753.231 l 0.45121494,-2.36868 0.90086588,-2.35305 1.3473888,-2.33035 1.7876558,-2.29675 2.2208847,-2.2545 2.6462935,-2.20291 3.0591903,-2.14189 3.460358,-2.07387 3.849011,-1.99567 4.220464,-1.91122 4.575491,-1.81736 4.912534,-1.71728 5.229245,-1.61014 5.524843,-1.49597 5.797759,-1.37633 6.048783,-1.2512 6.274781,-1.12061 6.474974,-0.98533 6.64936,-0.84689 6.79794,-0.7046 6.917587,-0.55912 7.009862,-0.41212 7.073986,-0.26353 7.11074,-0.11183 7.11778,0.0368 7.09588,0.18846 7.04584,0.33704 6.96686,0.48641 6.86127,0.63264 6.72678,0.77574 6.56569,0.91651 6.378,1.05336 6.16452,1.18707 5.92679,1.31455 5.66482,1.43653 5.37939,1.55384 5.07284,1.6641 4.74676,1.76889 4.40032,1.86508 4.0359,1.95421 3.65744,2.03555 3.26173,2.10985 2.85352,2.17317 2.43436,2.2295 2.00584,2.27719 1.5687,2.31472 1.12452,2.34287 0.67642,2.36165 0.226,2.37181"
       style="fill:none;stroke:#000000;stroke-width:0.225001;stroke-linecap:butt;stroke-linejoin:round;stroke-miterlimit:10;stroke-dasharray:none;stroke-opacity:1"
       id="path4974" /><path
       d="m 149.74763,754.41723 -0.0759,2.37182 -0.22521,2.36163 -0.37537,2.34289 -0.52237,2.31472 -0.66862,2.27641 -0.81172,2.22948 -0.95091,2.17396 -1.08776,2.10906 -1.21837,2.03556 -1.34582,1.95422 -1.46704,1.86585 -1.5812,1.76811 -1.69147,1.6641 -1.79312,1.55383 -1.88855,1.43732 -1.97533,1.31455 -2.05432,1.18629 -2.12627,1.05336 -2.18881,0.9165 -2.242,0.77654 -2.28735,0.63263 -2.32255,0.48563 -2.34835,0.33782 -2.36557,0.18769 -2.37257,0.0376 -2.36948,-0.11261 -2.35851,-0.26353 -2.33663,-0.41134 -2.30611,-0.55991 -2.26547,-0.70458 -2.216971,-0.84691 -2.158324,-0.98533 -2.091072,-1.1206 -2.016783,-1.2512 -1.932327,-1.37632 -1.841613,-1.49597 -1.743082,-1.61015 -1.637511,-1.71727 -1.524903,-1.81737 -1.406821,-1.91044 -1.283265,-1.99644 -1.153452,-2.07386 -1.01973,-2.14192 -0.882098,-2.20289 -0.740556,-2.25452 -0.595103,-2.29673 -0.449652,-2.32959 -0.300288,-2.35382 -0.150145,-2.36791 V 753.231 l 0.150145,-2.36868 0.300288,-2.35305 0.449652,-2.33035 0.595103,-2.29675 0.740556,-2.2545 0.882098,-2.20291 1.01973,-2.14189 1.153452,-2.07387 1.283265,-1.99567 1.406821,-1.91122 1.524903,-1.81736 1.637511,-1.71728 1.743082,-1.61014 1.841613,-1.49597 1.932327,-1.37633 2.016783,-1.2512 2.091072,-1.12061 2.158324,-0.98533 2.216971,-0.84689 2.26547,-0.7046 2.30611,-0.55912 2.33663,-0.41212 2.35851,-0.26353 2.36948,-0.11183 2.37257,0.0368 2.36557,0.18846 2.34835,0.33704 2.32255,0.48641 2.28735,0.63264 2.242,0.77574 2.18881,0.91651 2.12627,1.05336 2.05432,1.18707 1.97533,1.31455 1.88855,1.43653 1.79312,1.55384 1.69147,1.6641 1.5812,1.76889 1.46704,1.86508 1.34582,1.95421 1.21837,2.03555 1.08776,2.10985 0.95091,2.17317 0.81172,2.2295 0.66862,2.27719 0.52237,2.31472 0.37537,2.34287 0.22521,2.36165 0.0759,2.37181"
       style="fill:none;stroke:#000000;stroke-width:0.225001;stroke-linecap:butt;stroke-linejoin:round;stroke-miterlimit:10;stroke-dasharray:none;stroke-opacity:1"
       id="path4976" /><path
       d="m 224.53279,754.41723 -0.0751,2.37182 -0.22599,2.36163 -0.37458,2.34289 -0.52317,2.31472 -0.66861,2.27641 -0.81093,2.22948 -0.95169,2.17396 -1.08699,2.10906 -1.21915,2.03556 -1.34582,1.95422 -1.46625,1.86585 -1.58199,1.76811 -1.69147,1.6641 -1.79313,1.55383 -1.88853,1.43732 -1.97534,1.31455 -2.0551,1.18629 -2.12548,1.05336 -2.18882,0.9165 -2.242,0.77654 -2.28735,0.63263 -2.32176,0.48563 -2.34914,0.33782 -2.36555,0.18769 -2.37181,0.0376 -2.37026,-0.11261 -2.35851,-0.26353 -2.33663,-0.41134 -2.30611,-0.55991 -2.26546,-0.70458 -2.21698,-0.84691 -2.15755,-0.98533 -2.09185,-1.1206 -2.01599,-1.2512 -1.93311,-1.37632 -1.84162,-1.49597 -1.74308,-1.61015 -1.63751,-1.71727 -1.52491,-1.81737 -1.40682,-1.91044 -1.28247,-1.99644 -1.15424,-2.07386 -1.01973,-2.14192 -0.8821,-2.20289 -0.73977,-2.25452 -0.59668,-2.29673 -0.44886,-2.32959 -0.30029,-2.35382 -0.15092,-2.36791 V 753.231 l 0.15092,-2.36868 0.30029,-2.35305 0.44886,-2.33035 0.59668,-2.29675 0.73977,-2.2545 0.8821,-2.20291 1.01973,-2.14189 1.15424,-2.07387 1.28247,-1.99567 1.40682,-1.91122 1.52491,-1.81736 1.63751,-1.71728 1.74308,-1.61014 1.84162,-1.49597 1.93311,-1.37633 2.01599,-1.2512 2.09185,-1.12061 2.15755,-0.98533 2.21698,-0.84689 2.26546,-0.7046 2.30611,-0.55912 2.33663,-0.41212 2.35851,-0.26353 2.37026,-0.11183 2.37181,0.0368 2.36555,0.18846 2.34914,0.33704 2.32176,0.48641 2.28735,0.63264 2.242,0.77574 2.18882,0.91651 2.12548,1.05336 2.0551,1.18707 1.97534,1.31455 1.88853,1.43653 1.79313,1.55384 1.69147,1.6641 1.58199,1.76889 1.46625,1.86508 1.34582,1.95421 1.21915,2.03555 1.08699,2.10985 0.95169,2.17317 0.81093,2.2295 0.66861,2.27719 0.52317,2.31472 0.37458,2.34287 0.22599,2.36165 0.0751,2.37181"
       style="fill:none;stroke:#000000;stroke-width:0.225001;stroke-linecap:butt;stroke-linejoin:round;stroke-miterlimit:10;stroke-dasharray:none;stroke-opacity:1"
       id="path4978" /><path
       d="m 74.961684,754.41723 -0.07507,2.37182 -0.225216,2.36163 -0.375361,2.34289 -0.522377,2.31472 -0.668611,2.27641 -0.81172,2.22948 -0.950913,2.17396 -1.087763,2.10906 -1.218359,2.03556 -1.345826,1.95422 -1.466253,1.86585 -1.582771,1.76811 -1.690687,1.6641 -1.79313,1.55383 -1.888533,1.43732 -1.975337,1.31455 -2.0551,1.18629 -2.125481,1.05336 -2.188823,0.9165 -2.241998,0.77654 -2.287355,0.63263 -2.322545,0.48563 -2.348351,0.33782 -2.365555,0.18769 -2.372593,0.0376 -2.370247,-0.11261 -2.357735,-0.26353 -2.336621,-0.41134 -2.306122,-0.55991 -2.265459,-0.70458 -2.216975,-0.84691 -2.158325,-0.98533 -2.091072,-1.1206 -2.016,-1.2512 -1.933108,-1.37632 -1.841614,-1.49597 -1.743082,-1.61015 L 9.702085,779.34908 8.1763997,777.53171 6.7695788,775.62127 5.4870962,773.62483 4.3336438,771.55097 3.3139135,769.40905 2.4318156,767.20616 1.6912601,764.95164 1.0953749,762.65491 0.64650594,760.32532 0.3462173,757.9715 0.19529099,755.60359 V 753.231 l 0.15092631,-2.36868 0.30028864,-2.35305 0.44886896,-2.33035 0.5958852,-2.29675 0.7405555,-2.2545 0.8820979,-2.20291 1.0197303,-2.14189 1.1534524,-2.07387 1.2824826,-1.99567 1.4068209,-1.91122 1.5256853,-1.81736 1.637511,-1.71728 1.743082,-1.61014 1.841614,-1.49597 1.933108,-1.37633 2.016,-1.2512 2.091072,-1.12061 2.158325,-0.98533 2.216975,-0.84689 2.265459,-0.7046 2.306122,-0.55912 2.336621,-0.41212 2.357735,-0.26353 2.370247,-0.11183 2.372593,0.0368 2.365555,0.18846 2.348351,0.33704 2.322545,0.48641 2.287355,0.63264 2.241998,0.77574 2.188823,0.91651 2.125481,1.05336 2.0551,1.18707 1.975337,1.31455 1.888533,1.43653 1.79313,1.55384 1.690687,1.6641 1.582771,1.76889 1.466253,1.86508 1.345826,1.95421 1.218359,2.03555 1.087763,2.10985 0.950913,2.17317 0.81172,2.2295 0.668611,2.27719 0.522377,2.31472 0.375361,2.34287 0.225216,2.36165 0.07507,2.37181"
       style="fill:none;stroke:#000000;stroke-width:0.225001;stroke-linecap:butt;stroke-linejoin:round;stroke-miterlimit:10;stroke-dasharray:none;stroke-opacity:1"
       id="path4980" /></g></svg>
