<?xml version="1.0" encoding="UTF-8" standalone="no"?>
<!-- Created with Inkscape (http://www.inkscape.org/) -->

<svg
   version="1.1"
   id="svg2084"
   xml:space="preserve"
   width="322.97101"
   height="100"
   viewBox="0 0 322.97101 100"
   sodipodi:docname="5splits.svg"
   inkscape:version="1.1.1 (3bf5ae0d25, 2021-09-20, custom)"
   xmlns:inkscape="http://www.inkscape.org/namespaces/inkscape"
   xmlns:sodipodi="http://sodipodi.sourceforge.net/DTD/sodipodi-0.dtd"
   xmlns="http://www.w3.org/2000/svg"
   xmlns:svg="http://www.w3.org/2000/svg"><defs
     id="defs2088"><clipPath
       clipPathUnits="userSpaceOnUse"
       id="clipPath2104"><path
         d="M 950,2570 H 5150 V 5340 H 950 Z"
         id="path2102" /></clipPath><clipPath
       clipPathUnits="userSpaceOnUse"
       id="clipPath3065"><path
         d="M 950,2570 H 5150 V 5340 H 950 Z"
         id="path3063" /></clipPath><clipPath
       clipPathUnits="userSpaceOnUse"
       id="clipPath3899"><path
         d="M 950,2380 H 5150 V 5530 H 950 Z"
         id="path3897" /></clipPath></defs><sodipodi:namedview
     id="namedview2086"
     pagecolor="#ffffff"
     bordercolor="#666666"
     borderopacity="1.0"
     inkscape:pageshadow="2"
     inkscape:pageopacity="0.0"
     inkscape:pagecheckerboard="0"
     showgrid="false"
     width="383.168px"
     inkscape:zoom="3.1477273"
     inkscape:cx="247.95668"
     inkscape:cy="192.6787"
     inkscape:window-width="3840"
     inkscape:window-height="2160"
     inkscape:window-x="3840"
     inkscape:window-y="0"
     inkscape:window-maximized="1"
     inkscape:current-layer="g2090"
     height="100px" /><g
     id="g2090"
     inkscape:groupmode="layer"
     inkscape:label="ink_ext_XXXXXX"
     transform="matrix(1.3333333,0,0,-1.3333333,0,1056)"><path
       d="m 242.11574,754.49997 -0.24376,2.37142 -0.72978,2.36175 -1.21284,2.34317 -1.69216,2.31495 -2.16258,2.27628 -2.62633,2.22947 -3.0789,2.17375 -3.51811,2.10907 -3.94467,2.03625 -4.35342,1.9545 -4.74729,1.86533 -5.1196,1.76796 -5.47262,1.66468 -5.80257,1.55394 -6.11023,1.43653 -6.39265,1.31464 -6.64977,1.18608 -6.88016,1.0538 -7.08228,0.91631 -7.25619,0.7766 -7.40035,0.63168 -7.5163,0.48678 -7.60027,0.33738 -7.65452,0.18803 -7.67682,0.0372 -7.67012,-0.11222 -7.63074,-0.26307 -7.562372,-0.41246 -7.461299,-0.55959 -7.332734,-0.70377 -7.17221,-0.84721 -6.984936,-0.98541 -6.767934,-1.12069 -6.524921,-1.25148 -6.254412,-1.37632 -5.960121,-1.49597 -5.639821,-1.60968 -5.299456,-1.71744 -4.935306,-1.81777 -4.552583,-1.91065 -4.151276,-1.99612 -3.733622,-2.07342 -3.29962,-2.14251 -2.8537229,-2.20272 -2.3966824,-2.254 -1.92775,-2.2971 -1.4536157,-2.3298 -0.9713066,-2.35358 -0.48751119,-2.36844 v -2.37215 l 0.48751119,-2.36845 0.9713066,-2.35358 1.4536157,-2.3298 1.92775,-2.29635 2.3966824,-2.25474 2.8537229,-2.20271 3.29962,-2.14254 3.733622,-2.0734 4.151276,-1.99612 4.552583,-1.91066 4.935306,-1.81776 5.299456,-1.71743 5.639821,-1.60968 5.960121,-1.49598 6.254412,-1.37633 6.524921,-1.25073 6.767934,-1.12143 6.984936,-0.98543 7.17221,-0.8472 7.332734,-0.70377 7.461299,-0.55959 7.562372,-0.41171 7.63074,-0.26308 7.67012,-0.11296 7.67682,0.0379 7.65452,0.18727 7.60027,0.33813 7.5163,0.48603 7.40035,0.63168 7.25619,0.7766 7.08228,0.91632 6.88016,1.05379 6.64977,1.18608 6.39265,1.31465 6.11023,1.43725 5.80257,1.5532 5.47262,1.66468 5.1196,1.76871 4.74729,1.86459 4.35342,1.95451 3.94467,2.03625 3.51811,2.10908 3.0789,2.17373 2.62633,2.22947 2.16258,2.27704 1.69216,2.31418 1.21284,2.34319 0.72978,2.36175 0.24376,2.37141"
       style="fill:none;stroke:#000000;stroke-width:0.225001;stroke-linecap:butt;stroke-linejoin:round;stroke-miterlimit:10;stroke-dasharray:none;stroke-opacity:1"
       id="path3953" /><path
       d="m 158.50386,754.49997 -0.0751,2.37142 -0.22592,2.36175 -0.37456,2.34317 -0.52319,2.31495 -0.66809,2.27628 -0.81153,2.22947 -0.95123,2.17375 -1.08725,2.10907 -1.21878,2.03625 -1.34584,1.9545 -1.467,1.86533 -1.58218,1.76796 -1.69069,1.66468 -1.79324,1.55394 -1.88836,1.43653 -1.97531,1.31464 -2.05484,1.18608 -2.12616,1.0538 -2.1886,0.91631 -2.2421,0.7766 -2.28671,0.63168 -2.32311,0.48678 -2.34836,0.33738 -2.36548,0.18803 -2.37216,0.0372 -2.36993,-0.11222 -2.35878,-0.26307 -2.33649,-0.41246 -2.30602,-0.55959 -2.26588,-0.70377 -2.2161,-0.84721 -2.15812,-0.98541 -2.09199,-1.12069 -2.01619,-1.25148 -1.932951,-1.37632 -1.841544,-1.49597 -1.742704,-1.60968 -1.637919,-1.71744 -1.524959,-1.81777 -1.406797,-1.91065 -1.282688,-1.99612 -1.153381,-2.07342 -1.019612,-2.14251 -0.882128,-2.20272 -0.740184,-2.254 -0.596013,-2.2971 -0.44961,-2.3298 -0.300235,-2.35358 -0.150118,-2.36844 v -2.37215 l 0.150118,-2.36845 0.300235,-2.35358 0.44961,-2.3298 0.596013,-2.29635 0.740184,-2.25474 0.882128,-2.20271 1.019612,-2.14254 1.153381,-2.0734 1.282688,-1.99612 1.406797,-1.91066 1.524959,-1.81776 1.637919,-1.71743 1.742704,-1.60968 1.841544,-1.49598 1.932951,-1.37633 2.01619,-1.25073 2.09199,-1.12143 2.15812,-0.98543 2.2161,-0.8472 2.26588,-0.70377 2.30602,-0.55959 2.33649,-0.41171 2.35878,-0.26308 2.36993,-0.11296 2.37216,0.0379 2.36548,0.18727 2.34836,0.33813 2.32311,0.48603 2.28671,0.63168 2.2421,0.7766 2.1886,0.91632 2.12616,1.05379 2.05484,1.18608 1.97531,1.31465 1.88836,1.43725 1.79324,1.5532 1.69069,1.66468 1.58218,1.76871 1.467,1.86459 1.34584,1.95451 1.21878,2.03625 1.08725,2.10908 0.95123,2.17373 0.81153,2.22947 0.66809,2.27704 0.52319,2.31418 0.37456,2.34319 0.22592,2.36175 0.0751,2.37141"
       style="fill:none;stroke:#000000;stroke-width:0.225001;stroke-linecap:butt;stroke-linejoin:round;stroke-miterlimit:10;stroke-dasharray:none;stroke-opacity:1"
       id="path3955" /><path
       d="m 242.11574,754.49997 -0.023,0.73276 -0.0698,0.73052 -0.11594,0.72384 -0.16126,0.71491 -0.2066,0.70376 -0.25118,0.68892 -0.29355,0.67181 -0.33592,0.65176 -0.37678,0.6287 -0.41616,0.60419 -0.45332,0.57595 -0.48827,0.54696 -0.52244,0.51426 -0.55438,0.48008 -0.58339,0.44367 -0.61013,0.40651 -0.63539,0.36637 -0.65696,0.3255 -0.67627,0.28389 -0.69336,0.2393 -0.70675,0.19545 -0.71714,0.15012 -0.72607,0.10403 -0.73052,0.0587 -0.73351,0.0119 -0.73275,-0.0357 -0.72828,-0.081 -0.72236,-0.12707 -0.71194,-0.17316 -0.7008,-0.21774 -0.68445,-0.2616 -0.66735,-0.30469 -0.64655,-0.34632 -0.62276,-0.38644 -0.59675,-0.42508 -0.56927,-0.46225 -0.53879,-0.49791 -0.50608,-0.53061 -0.47118,-0.5611 -0.43474,-0.5908 -0.39684,-0.61681 -0.35598,-0.64062 -0.3151,-0.66215 -0.27274,-0.68072 -0.22889,-0.69635 -0.1843,-0.70971 -0.13822,-0.72013 -0.0929,-0.72754 -0.0468,-0.73201 v -0.73276 l 0.0468,-0.732 0.0929,-0.72756 0.13822,-0.71937 0.1843,-0.71047 0.22889,-0.69633 0.27274,-0.68073 0.3151,-0.66215 0.35598,-0.6406 0.39684,-0.61683 0.43474,-0.59081 0.47118,-0.56108 0.50608,-0.53061 0.53879,-0.49792 0.56927,-0.46224 0.59675,-0.42509 0.62276,-0.38645 0.64655,-0.3463 0.66735,-0.3047 0.68445,-0.26159 0.7008,-0.21775 0.71194,-0.17314 0.72236,-0.12709 0.72828,-0.0818 0.73275,-0.035 0.73351,0.0119 0.73052,0.0587 0.72607,0.10404 0.71714,0.15012 0.70675,0.19545 0.69336,0.23929 0.67627,0.28388 0.65696,0.32551 0.63539,0.36638 0.61013,0.40651 0.58339,0.44366 0.55438,0.48008 0.52244,0.51427 0.48827,0.54696 0.45332,0.57594 0.41616,0.60419 0.37678,0.62872 0.33592,0.65173 0.29355,0.67183 0.25118,0.6889 0.2066,0.70378 0.16126,0.71491 0.11594,0.72458 0.0698,0.72978 0.023,0.73275"
       style="fill:none;stroke:#000000;stroke-width:0.225001;stroke-linecap:butt;stroke-linejoin:round;stroke-miterlimit:10;stroke-dasharray:none;stroke-opacity:1"
       id="path3957" /><path
       d="m 23.216523,754.49997 -0.02304,0.73276 -0.06986,0.73052 -0.115932,0.72384 -0.162008,0.71491 -0.206598,0.70376 -0.250444,0.68892 -0.293547,0.67181 -0.335907,0.65176 -0.376781,0.6287 -0.416168,0.60419 -0.453326,0.57595 -0.488254,0.54696 -0.523183,0.51426 -0.553652,0.48008 -0.583379,0.44367 -0.610875,0.40651 -0.6354,0.36637 -0.656951,0.3255 -0.676273,0.28389 -0.692623,0.2393 -0.706743,0.19545 -0.717889,0.15012 -0.725321,0.10403 -0.731267,0.0587 -0.732752,0.0119 -0.732754,-0.0357 -0.728295,-0.081 -0.7223486,-0.12707 -0.712688,-0.17316 -0.7000541,-0.21774 -0.6851911,-0.2616 -0.6666122,-0.30469 -0.6465467,-0.34632 -0.6227658,-0.38644 -0.5974986,-0.42508 -0.5692584,-0.46225 -0.538046,-0.49791 -0.50609,-0.53061 -0.4711619,-0.5611 -0.4354901,-0.5908 L 1.7474466,760.43555 1.3914743,759.79493 1.0756324,759.13278 0.80363687,758.45206 0.57474442,757.75571 0.3904414,757.046 0.251471,756.32587 0.1585763,755.59833 0.1125005,754.86632 v -0.73276 l 0.0460758,-0.732 0.0928947,-0.72756 0.1389704,-0.71937 0.18430302,-0.71047 0.22889245,-0.69633 0.27199553,-0.68073 0.3158419,-0.66215 0.3559723,-0.6406 0.3961029,-0.61683 0.4354901,-0.59081 0.4711619,-0.56108 0.50609,-0.53061 0.538046,-0.49792 0.5692584,-0.46224 0.5974986,-0.42509 0.6227658,-0.38645 0.6465467,-0.3463 0.6666122,-0.3047 0.6851911,-0.26159 0.7000541,-0.21775 0.712688,-0.17314 0.7223486,-0.12709 0.728295,-0.0818 0.732754,-0.035 0.732752,0.0119 0.731267,0.0587 0.725321,0.10404 0.717889,0.15012 0.706743,0.19545 0.692623,0.23929 0.676273,0.28388 0.656951,0.32551 0.6354,0.36638 0.610875,0.40651 0.583379,0.44366 0.553652,0.48008 0.523183,0.51427 0.488254,0.54696 0.453326,0.57594 0.416168,0.60419 0.376781,0.62872 0.335907,0.65173 0.293547,0.67183 0.250444,0.6889 0.206598,0.70378 0.162008,0.71491 0.115932,0.72458 0.06986,0.72978 0.02304,0.73275"
       style="fill:none;stroke:#000000;stroke-width:0.225001;stroke-linecap:butt;stroke-linejoin:round;stroke-miterlimit:10;stroke-dasharray:none;stroke-opacity:1"
       id="path3961" /><path
       d="m 219.00577,754.49997 -0.0609,1.91883 -0.18208,1.91066 -0.3032,1.8958 -0.42286,1.87201 -0.54102,1.84229 -0.65695,1.80364 -0.76918,1.75831 -0.87989,1.70629 -0.98542,1.64758 -1.08873,1.58069 -1.18682,1.50862 -1.27972,1.43131 -1.36816,1.3466 -1.45138,1.25668 -1.52718,1.1623 -1.59853,1.06346 -1.6617,0.96016 -1.72042,0.8524 -1.77019,0.74168 -1.81405,0.62722 -1.85047,0.51202 -1.8787,0.39315 -1.90025,0.27273 -1.91364,0.15235 -1.91957,0.0304 -1.91734,-0.0914 -1.90769,-0.21254 -1.89058,-0.33294 -1.86533,-0.45258 -1.83337,-0.57 -1.79323,-0.68519 -1.74568,-0.79816 -1.69217,-0.90591 -1.63123,-1.01218 -1.5636,-1.11399 -1.49004,-1.20986 -1.40977,-1.30275 -1.32505,-1.38896 -1.23364,-1.47071 -1.13851,-1.54577 -1.03746,-1.61488 -0.93339,-1.67731 -0.82492,-1.73304 -0.71343,-1.78284 -0.59897,-1.82296 -0.48232,-1.85864 -0.36341,-1.88464 -0.24301,-1.90472 -0.12188,-1.91511 v -1.92031 l 0.12188,-1.91512 0.24301,-1.90471 0.36341,-1.88466 0.48232,-1.85789 0.59897,-1.82445 0.71343,-1.78209 0.82492,-1.73305 0.93339,-1.6773 1.03746,-1.61488 1.13851,-1.54577 1.23364,-1.4707 1.32505,-1.38896 1.40977,-1.30276 1.49004,-1.20986 1.5636,-1.11399 1.63123,-1.01219 1.69217,-0.9059 1.74568,-0.79815 1.79323,-0.68445 1.83337,-0.57075 1.86533,-0.45184 1.89058,-0.33367 1.90769,-0.21254 1.91734,-0.0914 1.91957,0.0305 1.91364,0.15235 1.90025,0.27273 1.8787,0.39313 1.85047,0.51205 1.81405,0.62722 1.77019,0.74166 1.72042,0.85241 1.6617,0.96015 1.59853,1.06346 1.52718,1.1623 1.45138,1.25668 1.36816,1.34659 1.27972,1.43133 1.18682,1.50861 1.08873,1.5807 0.98542,1.64758 0.87989,1.70629 0.76918,1.75831 0.65695,1.80364 0.54102,1.84229 0.42286,1.87201 0.3032,1.8958 0.18208,1.91065 0.0609,1.91883"
       style="fill:none;stroke:#000000;stroke-width:0.225001;stroke-linecap:butt;stroke-linejoin:round;stroke-miterlimit:10;stroke-dasharray:none;stroke-opacity:1"
       id="path3963" /><path
       d="m 83.718445,754.49997 -0.06094,1.91883 -0.182075,1.91066 -0.303207,1.8958 -0.422858,1.87201 -0.541018,1.84229 -0.65695,1.80364 -0.769169,1.75831 -0.879898,1.70629 -0.985427,1.64758 -1.088725,1.58069 -1.186822,1.50862 -1.279717,1.43131 -1.368152,1.3466 -1.451387,1.25668 -1.527189,1.1623 -1.59853,1.06346 -1.6617,0.96016 -1.720409,0.8524 -1.770201,0.74168 -1.814047,0.62722 -1.850462,0.51202 -1.878701,0.39315 -1.900254,0.27273 -1.91363,0.15235 -1.919575,0.0304 -1.917346,-0.0914 -1.907685,-0.21254 -1.890591,-0.33294 -1.865326,-0.45258 -1.833369,-0.57 -1.793239,-0.68519 -1.745675,-0.79816 -1.69217,-0.90591 -1.63123,-1.01218 -1.563603,-1.11399 -1.490031,-1.20986 -1.409769,-1.30275 -1.325049,-1.38896 -1.233642,-1.47071 -1.138518,-1.54577 -1.037447,-1.61488 -0.933405,-1.67731 -0.824905,-1.73304 -0.713431,-1.78284 -0.598984,-1.82296 -0.482309,-1.85864 -0.363405,-1.88464 -0.243012,-1.90472 -0.121134,-1.91511 v -1.92031 l 0.121134,-1.91512 0.243012,-1.90471 0.363405,-1.88466 0.482309,-1.85789 0.598984,-1.82445 0.713431,-1.78209 0.824905,-1.73305 0.933405,-1.6773 1.037447,-1.61488 1.138518,-1.54577 1.233642,-1.4707 1.325049,-1.38896 1.409769,-1.30276 1.490031,-1.20986 1.563603,-1.11399 1.63123,-1.01219 1.69217,-0.9059 1.745675,-0.79815 1.793239,-0.68445 1.833369,-0.57075 1.865326,-0.45184 1.890591,-0.33367 1.907685,-0.21254 1.917346,-0.0914 1.919575,0.0305 1.91363,0.15235 1.900254,0.27273 1.878701,0.39313 1.850462,0.51205 1.814047,0.62722 1.770201,0.74166 1.720409,0.85241 1.6617,0.96015 1.59853,1.06346 1.527189,1.1623 1.451387,1.25668 1.368152,1.34659 1.279717,1.43133 1.186822,1.50861 1.088725,1.5807 0.985427,1.64758 0.879898,1.70629 0.769169,1.75831 0.65695,1.80364 0.541018,1.84229 0.422858,1.87201 0.303207,1.8958 0.182075,1.91065 0.06094,1.91883"
       style="fill:none;stroke:#000000;stroke-width:0.225001;stroke-linecap:butt;stroke-linejoin:round;stroke-miterlimit:10;stroke-dasharray:none;stroke-opacity:1"
       id="path3965" /></g></svg>
