<?xml version="1.0" encoding="UTF-8" standalone="no"?>
<!-- Created with Inkscape (http://www.inkscape.org/) -->

<svg
   width="448.397mm"
   height="100mm"
   viewBox="0 0 448.39703 99.999999"
   version="1.1"
   id="svg5"
   inkscape:version="1.1.1 (3bf5ae0d25, 2021-09-20, custom)"
   sodipodi:docname="7splits.svg"
   xmlns:inkscape="http://www.inkscape.org/namespaces/inkscape"
   xmlns:sodipodi="http://sodipodi.sourceforge.net/DTD/sodipodi-0.dtd"
   xmlns="http://www.w3.org/2000/svg"
   xmlns:svg="http://www.w3.org/2000/svg">
  <sodipodi:namedview
     id="namedview7"
     pagecolor="#ffffff"
     bordercolor="#666666"
     borderopacity="1.0"
     inkscape:pageshadow="2"
     inkscape:pageopacity="0.0"
     inkscape:pagecheckerboard="0"
     inkscape:document-units="mm"
     showgrid="false"
     width="101.38004mm"
     inkscape:zoom="1.4805977"
     inkscape:cx="677.09142"
     inkscape:cy="111.77918"
     inkscape:window-width="3840"
     inkscape:window-height="2160"
     inkscape:window-x="3840"
     inkscape:window-y="0"
     inkscape:window-maximized="1"
     inkscape:current-layer="layer1" />
  <defs
     id="defs2" />
  <g
     inkscape:label="Layer 1"
     inkscape:groupmode="layer"
     id="layer1">
    <path
       d="m 448.24734,49.99918 -0.4514,-3.161457 -1.35115,-3.148968 -2.24612,-3.123997 -3.13337,-3.086494 -4.00492,-3.034913 -4.86248,-2.974031 -5.70126,-2.897522 -6.51349,-2.811581 -7.30385,-2.714702 -8.06145,-2.605427 -8.78931,-2.486676 -9.47971,-2.358583 -10.13263,-2.2196 L 365.47287,11.304003 354.15779,9.3890292 342.32104,7.6364628 330.00948,6.0541853 317.26993,4.6483952 304.15702,3.4269298 290.72078,2.3928882 277.01744,1.5494141 263.10172,0.90115682 249.02975,0.4497543 234.85783,0.20003285 220.6406,0.15000001 206.44056,0.30009853 192.3108,0.65165682 178.30913,1.199937 164.49178,1.9465333 150.91654,2.886885 137.63494,4.0146165 124.70308,5.329816 112.1711,6.8230971 100.08958,8.4912718 88.508837,10.326636 l -11.035138,1.994627 -10.444085,2.146188 -9.810539,2.289866 -9.138885,2.424202 -8.430521,2.547601 -7.684827,2.661658 -6.913675,2.764692 -6.110032,2.855325 -5.284521,2.938123 -4.4357339,3.005248 -3.5707064,3.061523 -2.6900575,3.106773 -1.8006641,3.138031 -0.90110912,3.156808 v 3.164555 l 0.90110912,3.156805 1.8006641,3.139584 2.6900575,3.105224 3.5707064,3.063072 4.4357339,3.005247 5.284521,2.938124 6.110032,2.855326 6.913675,2.76469 7.684827,2.66166 8.430521,2.547601 9.138885,2.422653 9.810539,2.289864 10.444085,2.147737 11.035138,1.994674 11.580743,1.83377 12.08152,1.668173 12.53198,1.495141 12.93186,1.31303 13.2816,1.129325 13.57524,0.939069 13.81735,0.746773 14.00167,0.549831 14.12976,0.349351 14.20004,0.15142 14.21723,-0.0514 14.17192,-0.250167 14.07197,-0.44972 13.91572,-0.647903 13.70334,-0.843785 13.43624,-1.033731 13.11291,-1.22337 12.73955,-1.404063 12.31156,-1.582277 11.83675,-1.752566 11.31508,-1.914974 10.74333,-2.072777 10.13263,-2.218004 9.47971,-2.358628 8.78931,-2.486676 8.06145,-2.606979 7.30385,-2.713151 6.51349,-2.813131 5.70126,-2.89752 4.86248,-2.972438 4.00492,-3.034957 3.13337,-3.086494 2.24612,-3.123999 1.35115,-3.148969 0.4514,-3.163005"
       style="fill:none;stroke:#000000;stroke-width:0.3;stroke-linecap:butt;stroke-linejoin:round;stroke-miterlimit:10;stroke-dasharray:none;stroke-opacity:1"
       id="path878" />
    <path
       d="m 274.05125,49.99918 -0.10002,-3.161457 -0.29975,-3.148968 -0.49984,-3.123997 -0.6982,-3.086494 -0.89037,-3.034913 -1.08243,-2.974031 -1.26835,-2.897522 -1.4495,-2.811581 -1.62607,-2.714702 -1.79312,-2.605427 -1.95562,-2.486676 -2.11028,-2.358583 -2.25392,-2.2196 -2.39142,-2.071226 -2.51635,-1.9149738 -2.63509,-1.7525664 -2.73816,-1.5822775 -2.835,-1.4057901 -2.91937,-1.2214654 -2.98963,-1.0340416 -3.049,-0.8434741 -3.09587,-0.64825728 -3.13179,-0.45140252 -3.15365,-0.24972145 -3.16303,-0.0500328 -3.15991,0.15009852 -3.14428,0.35155825 -3.11616,0.54828018 -3.074,0.7465963 -3.02089,0.9403517 -2.95528,1.1277315 -2.87719,1.3151995 -2.7897,1.4932811 -2.68819,1.6681747 -2.57728,1.8353642 -2.45544,1.994627 -2.32425,2.146188 -2.1821,2.289866 -2.03371,2.424202 -1.87594,2.547601 -1.71038,2.661658 -1.53856,2.764692 -1.35893,2.855325 -1.17618,2.938123 -0.98718,3.005248 -0.79504,3.061523 -0.59825,3.106773 -0.40142,3.138031 -0.19991,3.156808 v 3.164555 l 0.19991,3.156805 0.40142,3.139584 0.59825,3.105224 0.79504,3.063072 0.98718,3.005247 1.17618,2.938124 1.35893,2.855326 1.53856,2.76469 1.71038,2.66166 1.87594,2.547601 2.03371,2.422653 2.1821,2.289864 2.32425,2.147737 2.45544,1.994674 2.57728,1.83377 2.68819,1.668173 2.7897,1.495141 2.87719,1.31303 2.95528,1.129325 3.02089,0.939069 3.074,0.746773 3.11616,0.549831 3.14428,0.349351 3.15991,0.15142 3.16303,-0.0514 3.15365,-0.250167 3.13179,-0.44972 3.09587,-0.647903 3.049,-0.843785 2.98963,-1.033731 2.91937,-1.22337 2.835,-1.404063 2.73816,-1.582277 2.63509,-1.752566 2.51635,-1.914974 2.39142,-2.072777 2.25392,-2.218004 2.11028,-2.358628 1.95562,-2.486676 1.79312,-2.606979 1.62607,-2.713151 1.4495,-2.813131 1.26835,-2.89752 1.08243,-2.972438 0.89037,-3.034957 0.6982,-3.086494 0.49984,-3.123999 0.29975,-3.148969 0.10002,-3.163005"
       style="fill:none;stroke:#000000;stroke-width:0.3;stroke-linecap:butt;stroke-linejoin:round;stroke-miterlimit:10;stroke-dasharray:none;stroke-opacity:1"
       id="path880" />
    <path
       d="m 448.24734,49.99918 -0.0221,-0.702895 -0.0673,-0.701346 -0.11246,-0.695057 -0.15453,-0.68731 -0.19836,-0.67478 -0.24043,-0.662248 -0.28293,-0.643565 -0.32188,-0.62634 -0.36219,-0.60451 -0.39849,-0.579496 -0.43569,-0.552928 -0.47012,-0.524814 -0.5014,-0.493599 -0.5311,-0.460789 -0.56077,-0.426385 -0.58573,-0.390522 -0.60919,-0.351559 -0.63104,-0.312594 -0.6498,-0.273188 -0.6654,-0.229797 -0.67792,-0.187291 -0.68882,-0.1439 -0.69819,-0.100069 -0.70135,-0.05623 -0.70444,-0.0089 -0.70289,0.031 -0.69825,0.07792 -0.69351,0.121762 -0.68416,0.165595 -0.67319,0.209429 -0.6576,0.251492 -0.64042,0.292228 -0.6201,0.332519 -0.59827,0.371925 -0.57325,0.40779 -0.54668,0.443611 -0.51703,0.479517 -0.48575,0.509228 -0.45301,0.53885 -0.41708,0.567009 -0.37945,0.592024 -0.34359,0.615403 -0.30286,0.634178 -0.26079,0.654456 -0.22005,0.668537 -0.17666,0.682571 -0.13283,0.69041 -0.089,0.698201 -0.0452,0.702896 v 0.704488 l 0.0452,0.701301 0.089,0.699795 0.13283,0.690409 0.17666,0.681023 0.22005,0.668536 0.26079,0.654455 0.30286,0.635728 0.34359,0.615449 0.37945,0.591981 0.41708,0.567008 0.45301,0.538895 0.48575,0.509185 0.51703,0.477967 0.54668,0.443611 0.57325,0.409118 0.59827,0.370154 0.6201,0.332519 0.64042,0.292227 0.6576,0.251493 0.67319,0.209429 0.68416,0.165596 0.69351,0.121761 0.69825,0.07792 0.70289,0.03542 0.70444,-0.0089 0.70135,-0.05623 0.69819,-0.100068 0.68882,-0.145229 0.67792,-0.187291 0.6654,-0.229797 0.6498,-0.271859 0.63104,-0.312595 0.60919,-0.352887 0.58573,-0.388751 0.56077,-0.426385 0.5311,-0.460789 0.5014,-0.493555 0.47012,-0.524857 0.43569,-0.552931 0.39849,-0.581045 0.36219,-0.604511 0.32188,-0.624791 0.28293,-0.645113 0.24043,-0.662293 0.19836,-0.674779 0.15453,-0.687266 0.11246,-0.693508 0.0673,-0.701346 0.0221,-0.704443"
       style="fill:none;stroke:#000000;stroke-width:0.3;stroke-linecap:butt;stroke-linejoin:round;stroke-miterlimit:10;stroke-dasharray:none;stroke-opacity:1"
       id="path882" />
    <path
       d="m 363.88899,49.99918 -0.0907,-2.849083 -0.27009,-2.836553 -0.45145,-2.814721 -0.62633,-2.78032 -0.80443,-2.73507 -0.97467,-2.678794 -1.1418,-2.611626 -1.30586,-2.532016 -1.46512,-2.446075 -1.61669,-2.347647 -1.7619,-2.24147 -1.89939,-2.124316 -2.03213,-1.99932 -2.15398,-1.866581 -2.26803,-1.726 -2.37262,-1.577628 -2.46955,-1.426069 -2.55385,-1.2668046 -2.6288,-1.0996156 -2.69285,-0.9325148 -2.74756,-0.7606762 -2.7897,-0.5826392 -2.82248,-0.4060187 -2.84129,-0.2249264 -2.84903,-0.045162 -2.84754,0.1341589 -2.83345,0.3170222 -2.80688,0.495148 -2.76938,0.6716798 -2.72259,0.8450238 -2.66162,1.0184118 -2.59288,1.1840063 -2.51326,1.3464147 -2.42265,1.502624 -2.32112,1.652589 -2.21177,1.797863 -2.09459,1.933747 -1.96656,2.063389 -1.83223,2.183646 -1.69009,2.294558 -1.54008,2.397681 -1.38551,2.49137 -1.22616,2.572574 -1.05901,2.647577 -0.89036,2.708505 -0.71538,2.758447 -0.5389,2.799094 -0.36086,2.827207 -0.18109,2.844391 v 2.850631 l 0.18109,2.844345 0.36086,2.827211 0.5389,2.799093 0.71538,2.758493 0.89036,2.708458 1.05901,2.64603 1.22616,2.574166 1.38551,2.489776 1.54008,2.397681 1.69009,2.296109 1.83223,2.183646 1.96656,2.06339 2.09459,1.933747 2.21177,1.796312 2.32112,1.654138 2.42265,1.502625 2.51326,1.346414 2.59288,1.184008 2.66162,1.016861 2.72259,0.846574 2.76938,0.67168 2.80688,0.495147 2.83345,0.315694 2.84754,0.135488 2.84903,-0.04516 2.84129,-0.225369 2.82248,-0.406019 2.7897,-0.584189 2.74756,-0.759127 2.69285,-0.932514 2.6288,-1.101209 2.55385,-1.265211 2.46955,-1.426069 2.37262,-1.579179 2.26803,-1.725999 2.15398,-1.86658 2.03213,-1.999365 1.89939,-2.12427 1.7619,-2.239923 1.61669,-2.347647 1.46512,-2.446075 1.30586,-2.533565 1.1418,-2.611627 0.97467,-2.677243 0.80443,-2.73507 0.62633,-2.78032 0.45145,-2.814725 0.27009,-2.838101 0.0907,-2.849083"
       style="fill:none;stroke:#000000;stroke-width:0.3;stroke-linecap:butt;stroke-linejoin:round;stroke-miterlimit:10;stroke-dasharray:none;stroke-opacity:1"
       id="path884" />
    <path
       d="m 426.05927,49.99918 -0.0624,-1.97125 -0.18729,-1.963413 -0.31261,-1.947783 -0.43434,-1.924359 -0.55608,-1.891596 -0.67478,-1.854092 -0.79038,-1.807204 -0.90436,-1.752567 -1.01216,-1.693191 -1.11839,-1.624473 -1.21992,-1.551018 -1.3152,-1.469859 -1.40579,-1.383917 -1.49013,-1.291777 -1.5698,-1.19335 -1.64325,-1.093373 -1.70722,-0.985647 -1.76821,-0.876238 -1.81967,-0.762271 -1.86349,-0.645113 -1.90094,-0.526363 -1.9306,-0.40292 -1.95247,-0.281157 -1.96656,-0.156298 -1.9728,-0.03099 -1.96966,0.09386 -1.96031,0.218728 -1.94309,0.343588 -1.91656,0.463933 -1.88377,0.585738 -1.84314,0.704445 -1.79318,0.820052 -1.73848,0.930965 -1.67756,1.040284 -1.60575,1.143361 -1.53074,1.243339 -1.44953,1.338622 -1.36051,1.427662 -1.26831,1.510462 -1.16992,1.588519 -1.0653,1.660383 -0.96063,1.7229 -0.84657,1.782232 -0.73256,1.830628 -0.61545,1.874414 -0.4967,1.908731 -0.37325,1.936889 -0.24973,1.95717 -0.12486,1.968106 v 1.971206 l 0.12486,1.969655 0.24973,1.957214 0.37325,1.935296 0.4967,1.910282 0.61545,1.874416 0.73256,1.830626 0.84657,1.780683 0.96063,1.72445 1.0653,1.658833 1.16992,1.588519 1.26831,1.512011 1.36051,1.426113 1.44953,1.338622 1.53074,1.244887 1.60575,1.143361 1.67756,1.040285 1.73848,0.930967 1.79318,0.82005 1.84314,0.702896 1.88377,0.585739 1.91656,0.465481 1.94309,0.342261 1.96031,0.220055 1.96966,0.09386 1.9728,-0.031 1.96656,-0.157624 1.95247,-0.279831 1.9306,-0.40469 1.90094,-0.524814 1.86349,-0.646663 1.81967,-0.760676 1.76821,-0.876284 1.70722,-0.987197 1.64325,-1.091823 1.5698,-1.194899 1.49013,-1.291777 1.40579,-1.382367 1.3152,-1.471408 1.21992,-1.551063 1.11839,-1.62443 1.01216,-1.691641 0.90436,-1.754116 0.79038,-1.805654 0.67478,-1.854092 0.55608,-1.893145 0.43434,-1.922813 0.31261,-1.947782 0.18729,-1.965007 0.0624,-1.971205"
       style="fill:none;stroke:#000000;stroke-width:0.3;stroke-linecap:butt;stroke-linejoin:round;stroke-miterlimit:10;stroke-dasharray:none;stroke-opacity:1"
       id="path886" />
    <path
       d="m 84.50265,49.99918 -0.06296,-1.97125 -0.187292,-1.963413 -0.312417,-1.947783 -0.432674,-1.924359 -0.555758,-1.891596 -0.676653,-1.854092 -0.78896,-1.807204 -0.904234,-1.752567 -1.013418,-1.693191 -1.118385,-1.624473 -1.22038,-1.551018 -1.314886,-1.469859 -1.405789,-1.383917 -1.489983,-1.291777 -1.569955,-1.19335 -1.641802,-1.093373 -1.708507,-0.985647 -1.768169,-0.876238 -1.818313,-0.762271 -1.863454,-0.645113 -1.902345,-0.526363 -1.931241,-0.40292 -1.952485,-0.281157 -1.966388,-0.156298 -1.970918,-0.03099 -1.971386,0.09386 -1.960295,0.218728 -1.941554,0.343588 -1.916562,0.463933 -1.883442,0.585738 -1.843303,0.704445 -1.793319,0.820052 -1.740058,0.930965 -1.676171,1.040284 -1.607129,1.143361 -1.530748,1.243339 -1.449838,1.338622 -1.360025,1.427662 -1.268492,1.510462 -1.168369,1.588519 -1.066521,1.660383 -0.959219,1.7229 -0.84691,1.782232 -0.733982,1.830628 -0.616829,1.874414 -0.493745,1.908731 -0.373298,1.936889 -0.250252,1.95717 -0.124508,1.968106 v 1.971206 l 0.124508,1.969655 0.250252,1.957214 0.373298,1.935296 0.493745,1.910282 0.616829,1.874416 0.733982,1.830626 0.84691,1.780683 0.959219,1.72445 1.066521,1.658833 1.168369,1.588519 1.268492,1.512011 1.360025,1.426113 1.449838,1.338622 1.530748,1.244887 1.607129,1.143361 1.676171,1.040285 1.740058,0.930967 1.793319,0.82005 1.843303,0.702896 1.883442,0.585739 1.916562,0.465481 1.941554,0.342261 1.960295,0.220055 1.971386,0.09386 1.970918,-0.031 1.966388,-0.157624 1.952485,-0.279831 1.931241,-0.40469 1.902345,-0.524814 1.863454,-0.646663 1.818313,-0.760676 1.768169,-0.876284 1.708507,-0.987197 1.641802,-1.091823 1.569955,-1.194899 1.489983,-1.291777 1.405789,-1.382367 1.314886,-1.471408 1.22038,-1.551063 1.118385,-1.62443 1.013418,-1.691641 0.904234,-1.754116 0.78896,-1.805654 0.676653,-1.854092 0.555758,-1.893145 0.432674,-1.922813 0.312417,-1.947782 0.187292,-1.965007 0.06296,-1.971205"
       style="fill:none;stroke:#000000;stroke-width:0.3;stroke-linecap:butt;stroke-linejoin:round;stroke-miterlimit:10;stroke-dasharray:none;stroke-opacity:1"
       id="path888" />
    <path
       d="m 174.34012,49.99918 -0.0906,-2.849083 -0.27177,-2.836553 -0.44985,-2.814721 -0.62793,-2.78032 -0.80285,-2.73507 -0.97469,-2.678794 -1.14337,-2.611626 -1.30582,-2.532016 -1.46359,-2.446075 -1.61665,-2.347647 -1.76193,-2.24147 -1.90094,-2.124316 -2.03058,-1.99932 -2.15555,-1.866581 -2.26645,-1.726 -2.37422,-1.577628 -2.46795,-1.426069 -2.55385,-1.2668046 -2.62883,-1.0996156 -2.69442,-0.9325148 -2.74754,-0.7606762 -2.78971,-0.5826392 -2.8208,-0.4060187 -2.84157,-0.2249264 -2.84876,-0.045162 -2.8475,0.1341589 -2.8336,0.3170222 -2.80674,0.495148 -2.77128,0.6716798 -2.72067,0.8450238 -2.66335,1.0184118 -2.59134,1.1840063 -2.51308,1.3464147 -2.42297,1.502624 -2.32096,1.652589 -2.21192,1.797863 -2.09463,1.933747 -1.966544,2.063389 -1.832211,2.183646 -1.690073,2.294558 -1.54137,2.397681 -1.38564,2.49137 -1.224601,2.572574 -1.059185,2.647577 -0.890178,2.708505 -0.715075,2.758447 -0.539354,2.799094 -0.360679,2.827207 -0.181181,2.844391 v 2.850631 l 0.181181,2.844345 0.360679,2.827211 0.539354,2.799093 0.715075,2.758493 0.890178,2.708458 1.059185,2.64603 1.224601,2.574166 1.38564,2.489776 1.54137,2.397681 1.690073,2.296109 1.832211,2.183646 1.966544,2.06339 2.09463,1.933747 2.21192,1.796312 2.32096,1.654138 2.42297,1.502625 2.51308,1.346414 2.59134,1.184008 2.66335,1.016861 2.72067,0.846574 2.77128,0.67168 2.80674,0.495147 2.8336,0.315694 2.8475,0.135488 2.84876,-0.04516 2.84157,-0.225369 2.8208,-0.406019 2.78971,-0.584189 2.74754,-0.759127 2.69442,-0.932514 2.62883,-1.101209 2.55385,-1.265211 2.46795,-1.426069 2.37422,-1.579179 2.26645,-1.725999 2.15555,-1.86658 2.03058,-1.999365 1.90094,-2.12427 1.76193,-2.239923 1.61665,-2.347647 1.46359,-2.446075 1.30582,-2.533565 1.14337,-2.611627 0.97469,-2.677243 0.80285,-2.73507 0.62793,-2.78032 0.44985,-2.814725 0.27177,-2.838101 0.0906,-2.849083"
       style="fill:none;stroke:#000000;stroke-width:0.3;stroke-linecap:butt;stroke-linejoin:round;stroke-miterlimit:10;stroke-dasharray:none;stroke-opacity:1"
       id="path890" />
    <path
       d="m 22.333619,49.99918 -0.02347,-0.702895 -0.06575,-0.701346 -0.11233,-0.695057 -0.154969,-0.68731 -0.198361,-0.67478 -0.240379,-0.662248 -0.28129,-0.643565 -0.323355,-0.62634 -0.362361,-0.60451 -0.397828,-0.579496 -0.43626,-0.552928 -0.469843,-0.524814 -0.501555,-0.493599 -0.530764,-0.460789 -0.560758,-0.426385 -0.585743,-0.390522 -0.609642,-0.351559 -0.630888,-0.312594 -0.64979,-0.273188 -0.66572,-0.229797 -0.677746,-0.187291 -0.690085,-0.1439 -0.695085,-0.100069 -0.702895,-0.05623 -0.702895,-0.0089 -0.704617,0.031 -0.6980507,0.07792 -0.693681,0.121762 -0.6839932,0.165595 -0.6736855,0.209429 -0.6558774,0.251492 -0.6418239,0.292228 -0.6199511,0.332519 -0.5985565,0.371925 -0.572938,0.407832 -0.5466951,0.44361 -0.5174857,0.479517 -0.4856239,0.509229 -0.4528194,0.53885 -0.4172207,0.567008 -0.3795855,0.592024 -0.3434996,0.615404 -0.3014811,0.634177 -0.26242892,0.654456 -0.2202331,0.668537 -0.17635467,0.682572 -0.1329191,0.69041 -0.0891735,0.698201 -0.0451624,0.702895 v 0.704488 l 0.0451624,0.701302 0.0891735,0.699795 0.1329191,0.690409 0.17635467,0.681022 0.2202331,0.668536 0.26242892,0.654456 0.3014811,0.635728 0.3434996,0.615448 0.3795855,0.591981 0.4172207,0.567009 0.4528194,0.538894 0.4856239,0.509185 0.5174857,0.477967 0.5466951,0.443611 0.572938,0.409119 0.5985565,0.370154 0.6199511,0.332518 0.6418239,0.292227 0.6558774,0.251493 0.6736855,0.20943 0.6839932,0.165595 0.693681,0.121762 0.6980507,0.07792 0.704617,0.03542 0.702895,-0.0089 0.702895,-0.05623 0.695085,-0.100069 0.690085,-0.145228 0.677746,-0.187292 0.66572,-0.229797 0.64979,-0.271858 0.630888,-0.312595 0.609642,-0.352887 0.585743,-0.38875 0.560758,-0.426387 0.530764,-0.460789 0.501555,-0.493554 0.469843,-0.524857 0.43626,-0.552931 0.397828,-0.581045 0.362361,-0.604512 0.323355,-0.624791 0.28129,-0.645113 0.240379,-0.662293 0.198361,-0.674779 0.154969,-0.687265 0.11233,-0.693509 0.06575,-0.701345 0.02347,-0.704444"
       style="fill:none;stroke:#000000;stroke-width:0.3;stroke-linecap:butt;stroke-linejoin:round;stroke-miterlimit:10;stroke-dasharray:none;stroke-opacity:1"
       id="path892" />
  </g>
</svg>
