<?xml version="1.0" encoding="UTF-8" standalone="no"?>
<!-- Created with Inkscape (http://www.inkscape.org/) -->

<svg
   version="1.1"
   id="svg2084"
   xml:space="preserve"
   width="199.715"
   height="100"
   viewBox="0 0 199.715 100"
   sodipodi:docname="7splits_alternative.svg"
   inkscape:version="1.1.1 (3bf5ae0d25, 2021-09-20, custom)"
   xmlns:inkscape="http://www.inkscape.org/namespaces/inkscape"
   xmlns:sodipodi="http://sodipodi.sourceforge.net/DTD/sodipodi-0.dtd"
   xmlns="http://www.w3.org/2000/svg"
   xmlns:svg="http://www.w3.org/2000/svg"><defs
     id="defs2088"><clipPath
       clipPathUnits="userSpaceOnUse"
       id="clipPath2104"><path
         d="M 950,2570 H 5150 V 5340 H 950 Z"
         id="path2102" /></clipPath></defs><sodipodi:namedview
     id="namedview2086"
     pagecolor="#ffffff"
     bordercolor="#666666"
     borderopacity="1.0"
     inkscape:pageshadow="2"
     inkscape:pageopacity="0.0"
     inkscape:pagecheckerboard="0"
     showgrid="false"
     width="199.715px"
     inkscape:zoom="3.1477273"
     inkscape:cx="247.95668"
     inkscape:cy="170.12274"
     inkscape:window-width="3840"
     inkscape:window-height="2160"
     inkscape:window-x="3840"
     inkscape:window-y="0"
     inkscape:window-maximized="1"
     inkscape:current-layer="g2090" /><g
     id="g2090"
     inkscape:groupmode="layer"
     inkscape:label="ink_ext_XXXXXX"
     transform="matrix(1.3333333,0,0,-1.3333333,0,1056)"><path
       d="m 149.67361,754.4998 -0.15068,2.37159 -0.45096,2.36168 -0.74969,2.34346 -1.04582,2.31424 -1.33672,2.2767 -1.62346,2.2298 -1.9024,2.17348 -2.17452,2.10884 -2.4378,2.03584 -2.69119,1.95453 -2.93307,1.86484 -3.16456,1.7684 -3.38197,1.66465 -3.58631,1.5536 -3.77662,1.43735 -3.95075,1.31431 -4.10975,1.18658 -4.25209,1.05364 -4.3772,0.91651 -4.484603,0.77629 -4.573751,0.63238 -4.645176,0.4859 -4.69731,0.33731 -4.730155,0.1882 -4.745274,0.0376 -4.740059,-0.11313 -4.716601,-0.26275 -4.673328,-0.41239 -4.611809,-0.55888 -4.531523,-0.70486 -4.432989,-0.84666 -4.316728,-0.98534 -4.182744,-1.12089 -4.032595,-1.25122 -3.865767,-1.37583 -3.682775,-1.49678 -3.486227,-1.60938 -3.275084,-1.71731 -3.050383,-1.81794 -2.813695,-1.91072 -2.565534,-1.99623 -2.3069474,-2.07338 -2.0400193,-2.1422 -1.763707,-2.20268 -1.4806171,-2.25481 -1.1917925,-2.29653 -0.8982758,-2.32988 -0.60058844,-2.35387 -0.30133687,-2.36795 v -2.37263 l 0.30133687,-2.36794 0.60058844,-2.35388 0.8982758,-2.32988 1.1917925,-2.29653 1.4806171,-2.25428 1.763707,-2.20269 2.0400193,-2.14272 2.3069474,-2.07338 2.565534,-1.99623 2.813695,-1.91072 3.050383,-1.81741 3.275084,-1.7173 3.486227,-1.60992 3.682775,-1.49625 3.865767,-1.37636 4.032595,-1.2507 4.182744,-1.12089 4.316728,-0.98534 4.432989,-0.84718 4.531523,-0.70434 4.611809,-0.5594 4.673328,-0.41239 4.716601,-0.26275 4.740059,-0.11261 4.745274,0.0376 4.730155,0.18768 4.69731,0.33783 4.645176,0.4859 4.573751,0.63238 4.484603,0.77577 4.3772,0.91703 4.25209,1.05364 4.10975,1.18606 3.95075,1.31431 3.77662,1.43735 3.58631,1.55412 3.38197,1.66413 3.16456,1.7684 2.93307,1.86484 2.69119,1.95452 2.4378,2.03585 2.17452,2.10884 1.9024,2.174 1.62346,2.22928 1.33672,2.27722 1.04582,2.31426 0.74969,2.34292 0.45096,2.3622 0.15068,2.3716"
       style="fill:none;stroke:#000000;stroke-width:0.225;stroke-linecap:butt;stroke-linejoin:round;stroke-miterlimit:10;stroke-dasharray:none;stroke-opacity:1"
       id="path2160" /><path
       d="m 112.28072,754.4998 -0.0751,2.37159 -0.22523,2.36168 -0.37536,2.34346 -0.52291,2.31424 -0.66836,2.2767 -0.81174,2.2298 -0.95092,2.17348 -1.08752,2.10884 -1.21891,2.03584 -1.34507,1.95453 -1.46707,1.86484 -1.58175,1.7684 -1.69124,1.66465 -1.793424,1.5536 -1.887787,1.43735 -1.975894,1.31431 -2.054617,1.18658 -2.126041,1.05364 -2.188602,0.91651 -2.242302,0.77629 -2.287136,0.63238 -2.322066,0.4859 -2.348655,0.33731 -2.365338,0.1882 -2.372637,0.0376 -2.370031,-0.11313 -2.358038,-0.26275 -2.336664,-0.41239 -2.305905,-0.55888 -2.265761,-0.70486 -2.216755,-0.84666 -2.158365,-0.98534 -2.091632,-1.12089 -2.016038,-1.25122 -1.932622,-1.37583 -1.841909,-1.49678 -1.742853,-1.60938 -1.637542,-1.71731 -1.52493,-1.81794 -1.407108,-1.91072 -1.283028,-1.99623 -1.153214,-2.07338 -1.02027,-2.1422 -0.881592,-2.20268 -0.740309,-2.25481 -0.595896,-2.29653 -0.448878,-2.32988 -0.300293,-2.35387 -0.150669,-2.36795 v -2.37263 l 0.150669,-2.36794 0.300293,-2.35388 0.448878,-2.32988 0.595896,-2.29653 0.740309,-2.25428 0.881592,-2.20269 1.02027,-2.14272 1.153214,-2.07338 1.283028,-1.99623 1.407108,-1.91072 1.52493,-1.81741 1.637542,-1.7173 1.742853,-1.60992 1.841909,-1.49625 1.932622,-1.37636 2.016038,-1.2507 2.091632,-1.12089 2.158365,-0.98534 2.216755,-0.84718 2.265761,-0.70434 2.305905,-0.5594 2.336664,-0.41239 2.358038,-0.26275 2.370031,-0.11261 2.372637,0.0376 2.365338,0.18768 2.348655,0.33783 2.322066,0.4859 2.287136,0.63238 2.242302,0.77577 2.188602,0.91703 2.126041,1.05364 2.054617,1.18606 1.975894,1.31431 1.887787,1.43735 1.793424,1.55412 1.69124,1.66413 1.58175,1.7684 1.46707,1.86484 1.34507,1.95452 1.21891,2.03585 1.08752,2.10884 0.95092,2.174 0.81174,2.22928 0.66836,2.27722 0.52291,2.31426 0.37536,2.34292 0.22523,2.3622 0.0751,2.3716"
       style="fill:none;stroke:#000000;stroke-width:0.225;stroke-linecap:butt;stroke-linejoin:round;stroke-miterlimit:10;stroke-dasharray:none;stroke-opacity:1"
       id="path2162" /><path
       d="m 149.67361,754.4998 -0.0376,1.18553 -0.11314,1.18085 -0.18716,1.17146 -0.26171,1.15738 -0.33419,1.13862 -0.4056,1.11463 -0.47599,1.087 -0.54323,1.05416 -0.60946,1.01818 -0.67305,0.97753 -0.73301,0.93216 -0.79088,0.88419 -0.84563,0.83259 -0.8967,0.77681 -0.94416,0.71841 -0.98794,0.65741 -1.02705,0.59278 -1.06354,0.52655 -1.09379,0.45878 -1.12141,0.38789 -1.1433,0.31592 -1.16104,0.24347 -1.17458,0.1684 -1.18242,0.0944 -1.18658,0.0188 -1.18501,-0.0568 -1.17928,-0.13138 -1.16833,-0.20592 -1.15269,-0.27944 -1.13288,-0.35244 -1.10838,-0.42332 -1.07918,-0.49268 -1.04582,-0.56044 -1.00775,-0.62561 -0.96658,-0.68818 -0.92069,-0.74813 -0.87169,-0.80495 -0.81903,-0.85866 -0.7622,-0.9087 -0.70382,-0.95562 -0.64125,-0.99786 -0.57661,-1.03695 -0.50988,-1.07084 -0.44105,-1.1016 -0.37015,-1.12714 -0.2977,-1.14852 -0.22469,-1.16468 -0.15015,-1.17668 -0.0756,-1.18397 v -1.18658 l 0.0756,-1.18397 0.15015,-1.1772 0.22469,-1.16468 0.2977,-1.14853 0.37015,-1.12714 0.44105,-1.1016 0.50988,-1.07084 0.57661,-1.03695 0.64125,-0.99786 0.70382,-0.95562 0.7622,-0.90871 0.81903,-0.85865 0.87169,-0.80495 0.92069,-0.74813 0.96658,-0.68817 1.00775,-0.6251 1.04582,-0.56044 1.07918,-0.49267 1.10838,-0.42385 1.13288,-0.35192 1.15269,-0.27995 1.16833,-0.20594 1.17928,-0.13137 1.18501,-0.0568 1.18658,0.0193 1.18242,0.0939 1.17458,0.16892 1.16104,0.24295 1.1433,0.31593 1.12141,0.38788 1.09379,0.45878 1.06354,0.52708 1.02705,0.59277 0.98794,0.65689 0.94416,0.71893 0.8967,0.77681 0.84563,0.83207 0.79088,0.88419 0.73301,0.93268 0.67305,0.977 0.60946,1.01819 0.54323,1.05468 0.47599,1.08648 0.4056,1.11463 0.33419,1.13862 0.26171,1.15738 0.18716,1.17146 0.11314,1.18085 0.0376,1.18606"
       style="fill:none;stroke:#000000;stroke-width:0.225;stroke-linecap:butt;stroke-linejoin:round;stroke-miterlimit:10;stroke-dasharray:none;stroke-opacity:1"
       id="path2164" /><path
       d="m 37.496,754.4998 -0.03754,1.18553 -0.113131,1.18085 -0.187684,1.17146 -0.261193,1.15738 -0.334182,1.13862 -0.405605,1.11463 -0.475987,1.087 -0.543763,1.05416 -0.60893,1.01818 -0.673055,0.97753 -0.733009,0.93216 -0.7914,0.88419 -0.845099,0.83259 -0.896712,0.77681 -0.944154,0.71841 -0.987947,0.65741 -1.027048,0.59278 -1.06302,0.52655 -1.094823,0.45878 -1.120889,0.38789 -1.143308,0.31592 -1.161555,0.24347 -1.174067,0.1684 -1.182929,0.0944 -1.186058,0.0188 -1.185015,-0.0568 -1.178759,-0.13138 -1.168853,-0.20592 -1.152692,-0.27944 -1.133402,-0.35244 -1.107856,-0.42332 -1.079183,-0.49268 -1.0458158,-0.56044 -1.0082795,-0.62561 -0.9660504,-0.68818 -0.9206937,-0.74813 -0.8716872,-0.80495 -0.8185102,-0.85866 -0.7627263,-0.9087 -0.7032932,-0.95562 -0.6417745,-0.99786 -0.5766066,-1.03695 -0.5098744,-1.07084 -0.4410571,-1.1016 -0.37015437,-1.12714 -0.29768745,-1.14852 -0.2246993,-1.16468 L 0.1880949,756.27716 0.1125,755.09319 v -1.18658 l 0.0755949,-1.18397 0.15014708,-1.1772 0.2246993,-1.16468 0.29768745,-1.14853 0.37015437,-1.12714 0.4410571,-1.1016 0.5098744,-1.07084 0.5766066,-1.03695 0.6417745,-0.99786 0.7032932,-0.95562 0.7627263,-0.90871 0.8185102,-0.85865 0.8716872,-0.80495 0.9206937,-0.74813 0.9660504,-0.68817 1.0082795,-0.6251 1.0458158,-0.56044 1.079183,-0.49267 1.107856,-0.42385 1.133402,-0.35192 1.152692,-0.27995 1.168853,-0.20594 1.178759,-0.13137 1.185015,-0.0568 1.186058,0.0193 1.182929,0.0939 1.174067,0.16892 1.161555,0.24295 1.143308,0.31593 1.120889,0.38788 1.094823,0.45878 1.06302,0.52708 1.027048,0.59277 0.987947,0.65689 0.944154,0.71893 0.896712,0.77681 0.845099,0.83207 0.7914,0.88419 0.733009,0.93268 0.673055,0.977 0.60893,1.01819 0.543763,1.05468 0.475987,1.08648 0.405605,1.11463 0.334182,1.13862 0.261193,1.15738 0.187684,1.17146 0.113131,1.18085 L 37.496,754.5"
       style="fill:none;stroke:#000000;stroke-width:0.225;stroke-linecap:butt;stroke-linejoin:round;stroke-miterlimit:10;stroke-dasharray:none;stroke-opacity:1"
       id="path2166" /><path
       d="m 123.85039,776.84982 -0.0177,0.55054 -0.0521,0.54792 -0.0871,0.54376 -0.12146,0.537 -0.15485,0.52812 -0.1882,0.51769 -0.22106,0.50414 -0.25232,0.48954 -0.2831,0.47234 -0.31176,0.45357 -0.34043,0.43271 -0.36756,0.41031 -0.39204,0.38631 -0.41604,0.36076 -0.43845,0.33315 -0.45826,0.30551 -0.47703,0.27474 -0.49319,0.24503 -0.50778,0.21219 -0.52031,0.18039 -0.53073,0.14649 -0.53906,0.11314 -0.54481,0.0782 -0.54898,0.0432 -0.55054,0.009 -0.55002,-0.0266 -0.5474,-0.061 -0.54221,-0.096 -0.53489,-0.12981 -0.52552,-0.16319 -0.51457,-0.19654 -0.50101,-0.22835 -0.48536,-0.26015 -0.46765,-0.29039 -0.44836,-0.31958 -0.4275,-0.34722 -0.40457,-0.37328 -0.38005,-0.39882 -0.35348,-0.42178 -0.32636,-0.44313 -0.2982,-0.46348 -0.26746,-0.4812 -0.23669,-0.49685 -0.20488,-0.51143 -0.17153,-0.52291 -0.13815,-0.53334 -0.10427,-0.54011 -0.0699,-0.54636 -0.0349,-0.5495 V 776.574 l 0.0349,-0.54949 0.0699,-0.54636 0.10427,-0.54064 0.13815,-0.53282 0.17153,-0.52291 0.20488,-0.51143 0.23669,-0.49684 0.26746,-0.4812 0.2982,-0.46348 0.32636,-0.44314 0.35348,-0.42177 0.38005,-0.39882 0.40457,-0.37329 0.4275,-0.34721 0.44836,-0.31958 0.46765,-0.2904 0.48536,-0.26014 0.50101,-0.22836 0.51457,-0.19654 0.52552,-0.1637 0.53489,-0.12982 0.54221,-0.0954 0.5474,-0.061 0.55002,-0.0266 0.55054,0.009 0.54898,0.0437 0.54481,0.0782 0.53906,0.11313 0.53073,0.1465 0.52031,0.18038 0.50778,0.21219 0.49319,0.24502 0.47703,0.27476 0.45826,0.3055 0.43845,0.33314 0.41604,0.36078 0.39204,0.38631 0.36756,0.4103 0.34043,0.43272 0.31176,0.45356 0.2831,0.47234 0.25232,0.48955 0.22106,0.50413 0.1882,0.5177 0.15485,0.52811 0.12146,0.53699 0.0871,0.54376 0.0521,0.54794 0.0177,0.55054"
       style="fill:none;stroke:#000000;stroke-width:0.225;stroke-linecap:butt;stroke-linejoin:round;stroke-miterlimit:10;stroke-dasharray:none;stroke-opacity:1"
       id="path2168" /><path
       d="m 43.280313,776.84982 -0.0172,0.55054 -0.05266,0.54792 -0.08707,0.54376 -0.120952,0.537 -0.154839,0.52812 -0.188726,0.51769 -0.220529,0.50414 -0.252851,0.48954 -0.282569,0.47234 -0.312286,0.45357 -0.339915,0.43271 -0.367548,0.41031 -0.39205,0.38631 -0.416555,0.36076 -0.437928,0.33315 -0.458784,0.30551 -0.476508,0.27474 -0.493192,0.24503 -0.50831,0.21219 -0.520301,0.18039 -0.530208,0.14649 -0.539069,0.11314 -0.544805,0.0782 -0.548975,0.0432 -0.55054,0.009 -0.550017,-0.0266 -0.547411,-0.061 -0.542198,-0.096 -0.534899,-0.12981 -0.526036,-0.16319 -0.514046,-0.19654 -0.501011,-0.22835 -0.485372,-0.26015 -0.467646,-0.29039 -0.448876,-0.31958 -0.426981,-0.34722 -0.404563,-0.37328 -0.38006,-0.39882 -0.353993,-0.42178 -0.326361,-0.44313 -0.297688,-0.46348 -0.267449,-0.4812 -0.237212,-0.49685 -0.204367,-0.51143 -0.172043,-0.52291 -0.138156,-0.53334 -0.104269,-0.54011 -0.06934,-0.54636 -0.03493,-0.5495 V 776.574 l 0.03493,-0.54949 0.06934,-0.54636 0.104269,-0.54064 0.138156,-0.53282 0.172043,-0.52291 0.204367,-0.51143 0.237212,-0.49684 0.267449,-0.4812 0.297688,-0.46348 0.326361,-0.44314 0.353993,-0.42177 0.38006,-0.39882 0.404563,-0.37329 0.426981,-0.34721 0.448876,-0.31958 0.467646,-0.2904 0.485372,-0.26014 0.501011,-0.22836 0.514046,-0.19654 0.526036,-0.1637 0.534899,-0.12982 0.542198,-0.0954 0.547411,-0.061 0.550017,-0.0266 0.55054,0.009 0.548975,0.0437 0.544805,0.0782 0.539069,0.11313 0.530208,0.1465 0.520301,0.18038 0.50831,0.21219 0.493192,0.24502 0.476508,0.27476 0.458784,0.3055 0.437928,0.33314 0.416555,0.36078 0.39205,0.38631 0.367548,0.4103 0.339915,0.43272 0.312286,0.45356 0.282569,0.47234 0.252851,0.48955 0.220529,0.50413 0.188726,0.5177 0.154839,0.52811 0.120952,0.53699 0.08707,0.54376 0.05266,0.54794 0.0172,0.55054"
       style="fill:none;stroke:#000000;stroke-width:0.225;stroke-linecap:butt;stroke-linejoin:round;stroke-miterlimit:10;stroke-dasharray:none;stroke-opacity:1"
       id="path2170" /><path
       d="m 123.85039,732.14925 -0.0177,0.55054 -0.0521,0.54794 -0.0871,0.54376 -0.12146,0.53698 -0.15485,0.52865 -0.1882,0.51717 -0.22106,0.50466 -0.25232,0.48954 -0.2831,0.47234 -0.31176,0.45305 -0.34043,0.43272 -0.36756,0.41081 -0.39204,0.38631 -0.41604,0.36026 -0.43845,0.33366 -0.45826,0.30498 -0.47703,0.27528 -0.49319,0.24451 -0.50778,0.2127 -0.52031,0.17986 -0.53073,0.14702 -0.53906,0.11261 -0.54481,0.0782 -0.54898,0.0438 -0.55054,0.009 -0.55002,-0.0261 -0.5474,-0.0615 -0.54221,-0.0955 -0.53489,-0.12982 -0.52552,-0.16369 -0.51457,-0.19603 -0.50101,-0.22887 -0.48536,-0.26015 -0.46765,-0.29039 -0.44836,-0.31907 -0.4275,-0.34721 -0.40457,-0.3738 -0.38005,-0.39831 -0.35348,-0.42177 -0.32636,-0.44366 -0.2982,-0.46296 -0.26746,-0.4812 -0.23669,-0.49735 -0.20488,-0.51092 -0.17153,-0.52343 -0.13815,-0.53282 -0.10427,-0.54063 -0.0699,-0.54637 -0.0349,-0.54897 v -0.55054 l 0.0349,-0.55003 0.0699,-0.54584 0.10427,-0.54064 0.13815,-0.53332 0.17153,-0.52291 0.20488,-0.51144 0.23669,-0.49685 0.26746,-0.4812 0.2982,-0.46294 0.32636,-0.44367 0.35348,-0.42177 0.38005,-0.3983 0.40457,-0.37381 0.4275,-0.34722 0.44836,-0.31906 0.46765,-0.29039 0.48536,-0.26015 0.50101,-0.22886 0.51457,-0.19655 0.52552,-0.16319 0.53489,-0.12981 0.54221,-0.096 0.5474,-0.061 0.55002,-0.0261 0.55054,0.009 0.54898,0.0438 0.54481,0.0782 0.53906,0.11261 0.53073,0.14702 0.52031,0.17987 0.50778,0.21271 0.49319,0.24451 0.47703,0.27526 0.45826,0.30499 0.43845,0.33367 0.41604,0.36024 0.39204,0.38632 0.36756,0.4103 0.34043,0.43324 0.31176,0.45304 0.2831,0.47286 0.25232,0.48902 0.22106,0.50467 0.1882,0.51716 0.15485,0.52865 0.12146,0.53699 0.0871,0.54324 0.0521,0.54845 0.0177,0.55001"
       style="fill:none;stroke:#000000;stroke-width:0.225;stroke-linecap:butt;stroke-linejoin:round;stroke-miterlimit:10;stroke-dasharray:none;stroke-opacity:1"
       id="path2172" /><path
       d="m 43.280313,732.14925 -0.0172,0.55054 -0.05266,0.54794 -0.08707,0.54376 -0.120952,0.53698 -0.154839,0.52865 -0.188726,0.51717 -0.220529,0.50466 -0.252851,0.48954 -0.282569,0.47234 -0.312286,0.45305 -0.339915,0.43272 -0.367548,0.41081 -0.39205,0.38631 -0.416555,0.36026 -0.437928,0.33366 -0.458784,0.30498 -0.476508,0.27528 -0.493192,0.24451 -0.50831,0.2127 -0.520301,0.17986 -0.530208,0.14702 -0.539069,0.11261 -0.544805,0.0782 -0.548975,0.0438 -0.55054,0.009 -0.550017,-0.0261 -0.547411,-0.0615 -0.542198,-0.0955 -0.534899,-0.12982 -0.526036,-0.16369 -0.514046,-0.19603 -0.501011,-0.22887 -0.485372,-0.26015 -0.467646,-0.29039 -0.448876,-0.31907 -0.426981,-0.34721 -0.404563,-0.3738 -0.38006,-0.39831 -0.353993,-0.42177 -0.326361,-0.44366 -0.297688,-0.46296 -0.267449,-0.4812 -0.237212,-0.49735 -0.204367,-0.51092 -0.172043,-0.52343 -0.138156,-0.53282 -0.104269,-0.54063 -0.06934,-0.54637 -0.03493,-0.54897 v -0.55054 l 0.03493,-0.55003 0.06934,-0.54584 0.104269,-0.54064 0.138156,-0.53332 0.172043,-0.52291 0.204367,-0.51144 0.237212,-0.49685 0.267449,-0.4812 0.297688,-0.46294 0.326361,-0.44367 0.353993,-0.42177 0.38006,-0.3983 0.404563,-0.37381 0.426981,-0.34722 0.448876,-0.31906 0.467646,-0.29039 0.485372,-0.26015 0.501011,-0.22886 0.514046,-0.19655 0.526036,-0.16319 0.534899,-0.12981 0.542198,-0.096 0.547411,-0.061 0.550017,-0.0261 0.55054,0.009 0.548975,0.0438 0.544805,0.0782 0.539069,0.11261 0.530208,0.14702 0.520301,0.17987 0.50831,0.21271 0.493192,0.24451 0.476508,0.27526 0.458784,0.30499 0.437928,0.33367 0.416555,0.36024 0.39205,0.38632 0.367548,0.4103 0.339915,0.43324 0.312286,0.45304 0.282569,0.47286 0.252851,0.48902 0.220529,0.50467 0.188726,0.51716 0.154839,0.52865 0.120952,0.53699 0.08707,0.54324 0.05266,0.54845 0.0172,0.55001"
       style="fill:none;stroke:#000000;stroke-width:0.225;stroke-linecap:butt;stroke-linejoin:round;stroke-miterlimit:10;stroke-dasharray:none;stroke-opacity:1"
       id="path2174" /></g></svg>
